ISO-10303-21;
HEADER;

/* File generated by Shapr3D Version 26.121.0.11316 */

FILE_DESCRIPTION(('HOOPS Exchange Step'),'2;1');

FILE_NAME('/Users/khilli/Library/Containers/com.shapr3d.shapr/Data/tmp/export/temp_export',
'2026-08-08T19:48:18+01:00',
('khilli'),
('Shapr3D Limited'),
'HOOPS Exchange 2026.3',
'Shapr3D',
'Authorized');

FILE_SCHEMA( ('AP242_MANAGED_MODEL_BASED_3D_ENGINEERING_MIM_LF {1 0 10303 442 1 1 4}') );

ENDSEC;

DATA;
#3=(NAMED_UNIT(*)PLANE_ANGLE_UNIT()SI_UNIT($,.RADIAN.));
#4=PLANE_ANGLE_MEASURE_WITH_UNIT(PLANE_ANGLE_MEASURE(0.0174532925),#3);
#5=(CONVERSION_BASED_UNIT('DEGREE',#4)NAMED_UNIT(#6)PLANE_ANGLE_UNIT());
#6=DIMENSIONAL_EXPONENTS(0.,0.,0.,0.,0.,0.,0.);
#7=(NAMED_UNIT(*)SI_UNIT($,.STERADIAN.)SOLID_ANGLE_UNIT());
#8=(LENGTH_UNIT()NAMED_UNIT(*)SI_UNIT(.MILLI.,.METRE.));
#9=UNCERTAINTY_MEASURE_WITH_UNIT(LENGTH_MEASURE(1.000000E-05),#8,'DISTANCE_ACCURACY_VALUE','Maximum Tolerance applied to model');
#10=(GEOMETRIC_REPRESENTATION_CONTEXT(3)GLOBAL_UNCERTAINTY_ASSIGNED_CONTEXT((#9))GLOBAL_UNIT_ASSIGNED_CONTEXT((#8,#5,#7))REPRESENTATION_CONTEXT('','root'));
#12=CARTESIAN_POINT('',(0.,0.,0.));
#13=DIRECTION('',(0.,0.,1.));
#14=DIRECTION('',(1.,0.,0.));
#15=AXIS2_PLACEMENT_3D('',#12,#13,#14);
#27=CARTESIAN_POINT('',(30.949813132,-50.,17.946980739));
#28=DIRECTION('',(-0.843661488,0.,-0.536875492));
#29=DIRECTION('',(-0.536875492,0.,0.843661488));
#30=AXIS2_PLACEMENT_3D('',#27,#28,#29);
#31=PLANE('',#30);
#32=CARTESIAN_POINT('',(39.686241595,-8.,4.218307439));
#33=VERTEX_POINT('',#32);
#34=CARTESIAN_POINT('',(15.91729935,-8.,41.569502396));
#35=VERTEX_POINT('',#34);
#36=CARTESIAN_POINT('',(39.686241595,-8.,4.218307439));
#37=DIRECTION('',(-0.536875492,0.,0.843661488));
#38=VECTOR('',#37,44.272727273);
#39=LINE('',#36,#38);
#40=EDGE_CURVE('',#33,#35,#39,.T.);
#41=ORIENTED_EDGE('',*,*,#40,.T.);
#42=CARTESIAN_POINT('',(15.91729935,-42.,41.569502396));
#43=VERTEX_POINT('',#42);
#44=CARTESIAN_POINT('',(15.91729935,-8.,41.569502396));
#45=DIRECTION('',(-0.,-1.,-0.));
#46=VECTOR('',#45,34.);
#47=LINE('',#44,#46);
#48=EDGE_CURVE('',#35,#43,#47,.T.);
#49=ORIENTED_EDGE('',*,*,#48,.T.);
#50=CARTESIAN_POINT('',(39.686241595,-42.,4.218307439));
#51=VERTEX_POINT('',#50);
#52=CARTESIAN_POINT('',(15.91729935,-42.,41.569502396));
#53=DIRECTION('',(0.536875492,-0.,-0.843661488));
#54=VECTOR('',#53,44.272727273);
#55=LINE('',#52,#54);
#56=EDGE_CURVE('',#43,#51,#55,.T.);
#57=ORIENTED_EDGE('',*,*,#56,.T.);
#58=CARTESIAN_POINT('',(39.686241595,-42.,4.218307439));
#59=DIRECTION('',(0.,1.,-0.));
#60=VECTOR('',#59,34.);
#61=LINE('',#58,#60);
#62=EDGE_CURVE('',#51,#33,#61,.T.);
#63=ORIENTED_EDGE('',*,*,#62,.T.);
#64=EDGE_LOOP('',(#41,#49,#57,#63));
#65=FACE_BOUND('',#64,.T.);
#66=CARTESIAN_POINT('',(18.064801319,-25.1,38.194856445));
#67=VERTEX_POINT('',#66);
#68=CARTESIAN_POINT('',(26.869559391,-41.5,24.358808046));
#69=VERTEX_POINT('',#68);
#70=CARTESIAN_POINT('',(26.92324694,-25.,24.274441897));
#71=DIRECTION('',(0.843661488,0.,0.536875492));
#72=DIRECTION('',(-0.536865632,-0.006060495,0.843645994));
#73=AXIS2_PLACEMENT_3D('',#70,#71,#72);
#74=CIRCLE('',#73,16.500303028);
#75=EDGE_CURVE('',#67,#69,#74,.T.);
#76=ORIENTED_EDGE('',*,*,#75,.F.);
#77=CARTESIAN_POINT('',(18.064801319,-24.9,38.194856445));
#78=VERTEX_POINT('',#77);
#79=CARTESIAN_POINT('',(18.064801319,-25.1,38.194856445));
#80=DIRECTION('',(0.,1.,0.));
#81=VECTOR('',#80,0.2);
#82=LINE('',#79,#81);
#83=EDGE_CURVE('',#67,#78,#82,.T.);
#84=ORIENTED_EDGE('',*,*,#83,.T.);
#85=CARTESIAN_POINT('',(26.869559391,-8.5,24.358808046));
#86=VERTEX_POINT('',#85);
#87=CARTESIAN_POINT('',(26.869559391,-24.9,24.358808046));
#88=DIRECTION('',(0.843661488,-0.,0.536875492));
#89=DIRECTION('',(-0.,1.,0.));
#90=AXIS2_PLACEMENT_3D('',#87,#88,#89);
#91=CIRCLE('',#90,16.4);
#92=EDGE_CURVE('',#86,#78,#91,.T.);
#93=ORIENTED_EDGE('',*,*,#92,.F.);
#94=CARTESIAN_POINT('',(27.030137889,-8.5,24.106470407));
#95=VERTEX_POINT('',#94);
#96=CARTESIAN_POINT('',(27.030137889,-8.5,24.106470407));
#97=DIRECTION('',(-0.536875492,0.,0.843661488));
#98=VECTOR('',#97,0.299098208);
#99=LINE('',#96,#98);
#100=EDGE_CURVE('',#95,#86,#99,.T.);
#101=ORIENTED_EDGE('',*,*,#100,.F.);
#102=CARTESIAN_POINT('',(35.7818958,-24.950149688,10.353707975));
#103=VERTEX_POINT('',#102);
#104=CARTESIAN_POINT('',(26.94984864,-24.950149688,24.232639226));
#105=DIRECTION('',(0.843661488,0.,0.536875492));
#106=DIRECTION('',(0.536873027,-0.003030261,-0.843657614));
#107=AXIS2_PLACEMENT_3D('',#104,#105,#106);
#108=CIRCLE('',#107,16.450829453);
#109=EDGE_CURVE('',#103,#95,#108,.T.);
#110=ORIENTED_EDGE('',*,*,#109,.F.);
#111=CARTESIAN_POINT('',(35.781855249,-25.,10.353771697));
#112=VERTEX_POINT('',#111);
#113=CARTESIAN_POINT('',(26.94984864,-24.950149688,24.232639226));
#114=DIRECTION('',(0.843661488,0.,0.536875492));
#115=DIRECTION('',(0.536873027,-0.003030261,-0.843657614));
#116=AXIS2_PLACEMENT_3D('',#113,#114,#115);
#117=CIRCLE('',#116,16.450829453);
#118=EDGE_CURVE('',#112,#103,#117,.T.);
#119=ORIENTED_EDGE('',*,*,#118,.F.);
#120=CARTESIAN_POINT('',(26.923409628,-41.5,24.274186244));
#121=VERTEX_POINT('',#120);
#122=CARTESIAN_POINT('',(26.89648451,-24.949848486,24.316497145));
#123=DIRECTION('',(0.843661488,0.,0.536875492));
#124=DIRECTION('',(0.001626873,-0.999995409,-0.002556515));
#125=AXIS2_PLACEMENT_3D('',#122,#123,#124);
#126=CIRCLE('',#125,16.5502275);
#127=EDGE_CURVE('',#121,#112,#126,.T.);
#128=ORIENTED_EDGE('',*,*,#127,.F.);
#129=CARTESIAN_POINT('',(26.923409628,-41.5,24.274186244));
#130=DIRECTION('',(-0.536875492,0.,0.843661488));
#131=VECTOR('',#130,0.100303028);
#132=LINE('',#129,#131);
#133=EDGE_CURVE('',#121,#69,#132,.T.);
#134=ORIENTED_EDGE('',*,*,#133,.T.);
#135=EDGE_LOOP('',(#76,#84,#93,#101,#110,#119,#128,#134));
#136=FACE_BOUND('',#135,.T.);
#137=ADVANCED_FACE('',(#65,#136),#31,.F.);
#138=CARTESIAN_POINT('',(56.643140258,-25.,-26.15350612));
#139=DIRECTION('',(0.843661488,0.,0.536875492));
#140=DIRECTION('',(0.536875492,0.,-0.843661488));
#141=AXIS2_PLACEMENT_3D('',#138,#139,#140);
#142=PLANE('',#141);
#143=CARTESIAN_POINT('',(25.236086653,-41.5,23.20043526));
#144=VERTEX_POINT('',#143);
#145=CARTESIAN_POINT('',(34.094532274,-25.,9.280020712));
#146=VERTEX_POINT('',#145);
#147=CARTESIAN_POINT('',(25.209161534,-24.949848486,23.242746161));
#148=DIRECTION('',(0.843661488,0.,0.536875492));
#149=DIRECTION('',(0.001626873,-0.999995409,-0.002556515));
#150=AXIS2_PLACEMENT_3D('',#147,#148,#149);
#151=CIRCLE('',#150,16.5502275);
#152=EDGE_CURVE('',#144,#146,#151,.T.);
#153=ORIENTED_EDGE('',*,*,#152,.T.);
#154=CARTESIAN_POINT('',(34.094572824,-24.950149688,9.279956991));
#155=VERTEX_POINT('',#154);
#156=CARTESIAN_POINT('',(25.262525664,-24.950149688,23.158888242));
#157=DIRECTION('',(0.843661488,0.,0.536875492));
#158=DIRECTION('',(0.536873027,-0.003030261,-0.843657614));
#159=AXIS2_PLACEMENT_3D('',#156,#157,#158);
#160=CIRCLE('',#159,16.450829453);
#161=EDGE_CURVE('',#146,#155,#160,.T.);
#162=ORIENTED_EDGE('',*,*,#161,.T.);
#163=CARTESIAN_POINT('',(25.342814913,-8.5,23.032719422));
#164=VERTEX_POINT('',#163);
#165=CARTESIAN_POINT('',(25.262525664,-24.950149688,23.158888242));
#166=DIRECTION('',(0.843661488,0.,0.536875492));
#167=DIRECTION('',(0.536873027,-0.003030261,-0.843657614));
#168=AXIS2_PLACEMENT_3D('',#165,#166,#167);
#169=CIRCLE('',#168,16.450829453);
#170=EDGE_CURVE('',#155,#164,#169,.T.);
#171=ORIENTED_EDGE('',*,*,#170,.T.);
#172=CARTESIAN_POINT('',(40.,-8.5,0.));
#173=VERTEX_POINT('',#172);
#174=CARTESIAN_POINT('',(40.,-8.5,0.));
#175=DIRECTION('',(-0.536875492,0.,0.843661488));
#176=VECTOR('',#175,27.300901792);
#177=LINE('',#174,#176);
#178=EDGE_CURVE('',#173,#164,#177,.T.);
#179=ORIENTED_EDGE('',*,*,#178,.F.);
#180=CARTESIAN_POINT('',(40.,-41.5,0.));
#181=VERTEX_POINT('',#180);
#182=CARTESIAN_POINT('',(40.,-41.5,0.));
#183=DIRECTION('',(0.,1.,0.));
#184=VECTOR('',#183,33.);
#185=LINE('',#182,#184);
#186=EDGE_CURVE('',#181,#173,#185,.T.);
#187=ORIENTED_EDGE('',*,*,#186,.F.);
#188=CARTESIAN_POINT('',(40.,-41.5,0.));
#189=DIRECTION('',(-0.536875492,0.,0.843661488));
#190=VECTOR('',#189,27.499696972);
#191=LINE('',#188,#190);
#192=EDGE_CURVE('',#181,#144,#191,.T.);
#193=ORIENTED_EDGE('',*,*,#192,.T.);
#194=EDGE_LOOP('',(#153,#162,#171,#179,#187,#193));
#195=FACE_BOUND('',#194,.T.);
#196=ADVANCED_FACE('',(#195),#142,.F.);
#197=CARTESIAN_POINT('',(0.,-50.,5.));
#198=DIRECTION('',(-1.,0.,0.));
#199=DIRECTION('',(0.,0.,1.));
#200=AXIS2_PLACEMENT_3D('',#197,#198,#199);
#201=PLANE('',#200);
#202=CARTESIAN_POINT('',(0.,-42.,8.));
#203=VERTEX_POINT('',#202);
#204=CARTESIAN_POINT('',(0.,-8.,8.));
#205=VERTEX_POINT('',#204);
#206=CARTESIAN_POINT('',(0.,-42.,8.));
#207=DIRECTION('',(0.,1.,0.));
#208=VECTOR('',#207,34.);
#209=LINE('',#206,#208);
#210=EDGE_CURVE('',#203,#205,#209,.T.);
#211=ORIENTED_EDGE('',*,*,#210,.T.);
#212=CARTESIAN_POINT('',(0.,-8.,0.));
#213=VERTEX_POINT('',#212);
#214=CARTESIAN_POINT('',(0.,-8.,8.));
#215=DIRECTION('',(-0.,-0.,-1.));
#216=VECTOR('',#215,8.);
#217=LINE('',#214,#216);
#218=EDGE_CURVE('',#205,#213,#217,.T.);
#219=ORIENTED_EDGE('',*,*,#218,.T.);
#220=CARTESIAN_POINT('',(0.,-22.5,0.));
#221=VERTEX_POINT('',#220);
#222=CARTESIAN_POINT('',(0.,-22.5,0.));
#223=DIRECTION('',(0.,1.,0.));
#224=VECTOR('',#223,14.5);
#225=LINE('',#222,#224);
#226=EDGE_CURVE('',#221,#213,#225,.T.);
#227=ORIENTED_EDGE('',*,*,#226,.F.);
#228=CARTESIAN_POINT('',(0.,-22.5,0.3));
#229=VERTEX_POINT('',#228);
#230=CARTESIAN_POINT('',(0.,-22.5,0.));
#231=DIRECTION('',(0.,0.,1.));
#232=VECTOR('',#231,0.3);
#233=LINE('',#230,#232);
#234=EDGE_CURVE('',#221,#229,#233,.T.);
#235=ORIENTED_EDGE('',*,*,#234,.T.);
#236=CARTESIAN_POINT('',(0.,-24.8,2.6));
#237=VERTEX_POINT('',#236);
#238=CARTESIAN_POINT('',(0.,-24.8,0.3));
#239=DIRECTION('',(1.,-0.,-0.));
#240=DIRECTION('',(0.,0.,1.));
#241=AXIS2_PLACEMENT_3D('',#238,#239,#240);
#242=CIRCLE('',#241,2.3);
#243=EDGE_CURVE('',#229,#237,#242,.T.);
#244=ORIENTED_EDGE('',*,*,#243,.T.);
#245=CARTESIAN_POINT('',(0.,-25.2,2.6));
#246=VERTEX_POINT('',#245);
#247=CARTESIAN_POINT('',(0.,-24.8,2.6));
#248=DIRECTION('',(0.,-1.,0.));
#249=VECTOR('',#248,0.4);
#250=LINE('',#247,#249);
#251=EDGE_CURVE('',#237,#246,#250,.T.);
#252=ORIENTED_EDGE('',*,*,#251,.T.);
#253=CARTESIAN_POINT('',(0.,-27.5,0.3));
#254=VERTEX_POINT('',#253);
#255=CARTESIAN_POINT('',(0.,-25.2,0.3));
#256=DIRECTION('',(1.,-0.,-0.));
#257=DIRECTION('',(0.,0.,1.));
#258=AXIS2_PLACEMENT_3D('',#255,#256,#257);
#259=CIRCLE('',#258,2.3);
#260=EDGE_CURVE('',#246,#254,#259,.T.);
#261=ORIENTED_EDGE('',*,*,#260,.T.);
#262=CARTESIAN_POINT('',(0.,-27.5,0.));
#263=VERTEX_POINT('',#262);
#264=CARTESIAN_POINT('',(0.,-27.5,0.));
#265=DIRECTION('',(0.,0.,1.));
#266=VECTOR('',#265,0.3);
#267=LINE('',#264,#266);
#268=EDGE_CURVE('',#263,#254,#267,.T.);
#269=ORIENTED_EDGE('',*,*,#268,.F.);
#270=CARTESIAN_POINT('',(0.,-42.,0.));
#271=VERTEX_POINT('',#270);
#272=CARTESIAN_POINT('',(0.,-42.,0.));
#273=DIRECTION('',(0.,1.,0.));
#274=VECTOR('',#273,14.5);
#275=LINE('',#272,#274);
#276=EDGE_CURVE('',#271,#263,#275,.T.);
#277=ORIENTED_EDGE('',*,*,#276,.F.);
#278=CARTESIAN_POINT('',(0.,-42.,0.));
#279=DIRECTION('',(0.,0.,1.));
#280=VECTOR('',#279,8.);
#281=LINE('',#278,#280);
#282=EDGE_CURVE('',#271,#203,#281,.T.);
#283=ORIENTED_EDGE('',*,*,#282,.T.);
#284=EDGE_LOOP('',(#211,#219,#227,#235,#244,#252,#261,#269,#277,#283));
#285=FACE_BOUND('',#284,.T.);
#286=ADVANCED_FACE('',(#285),#201,.T.);
#287=CARTESIAN_POINT('',(20.,-50.,0.));
#288=DIRECTION('',(0.,0.,1.));
#289=DIRECTION('',(1.,0.,0.));
#290=AXIS2_PLACEMENT_3D('',#287,#288,#289);
#291=PLANE('',#290);
#292=ORIENTED_EDGE('',*,*,#226,.T.);
#293=CARTESIAN_POINT('',(2.,-6.,0.));
#294=VERTEX_POINT('',#293);
#295=CARTESIAN_POINT('',(2.,-8.,0.));
#296=DIRECTION('',(-0.,-0.,-1.));
#297=DIRECTION('',(1.,0.,-0.));
#298=AXIS2_PLACEMENT_3D('',#295,#296,#297);
#299=CIRCLE('',#298,2.);
#300=EDGE_CURVE('',#213,#294,#299,.T.);
#301=ORIENTED_EDGE('',*,*,#300,.T.);
#302=CARTESIAN_POINT('',(42.370619056,-6.,-0.));
#303=VERTEX_POINT('',#302);
#304=CARTESIAN_POINT('',(2.,-6.,0.));
#305=DIRECTION('',(1.,0.,-0.));
#306=VECTOR('',#305,40.370619056);
#307=LINE('',#304,#306);
#308=EDGE_CURVE('',#294,#303,#307,.T.);
#309=ORIENTED_EDGE('',*,*,#308,.T.);
#310=CARTESIAN_POINT('',(42.370619056,-44.,-0.));
#311=VERTEX_POINT('',#310);
#312=CARTESIAN_POINT('',(42.370619056,-44.,0.));
#313=DIRECTION('',(0.,1.,0.));
#314=VECTOR('',#313,38.);
#315=LINE('',#312,#314);
#316=EDGE_CURVE('',#311,#303,#315,.T.);
#317=ORIENTED_EDGE('',*,*,#316,.F.);
#318=CARTESIAN_POINT('',(2.,-44.,0.));
#319=VERTEX_POINT('',#318);
#320=CARTESIAN_POINT('',(2.,-44.,0.));
#321=DIRECTION('',(1.,0.,-0.));
#322=VECTOR('',#321,40.370619056);
#323=LINE('',#320,#322);
#324=EDGE_CURVE('',#319,#311,#323,.T.);
#325=ORIENTED_EDGE('',*,*,#324,.F.);
#326=CARTESIAN_POINT('',(2.,-42.,0.));
#327=DIRECTION('',(-0.,-0.,-1.));
#328=DIRECTION('',(1.,0.,-0.));
#329=AXIS2_PLACEMENT_3D('',#326,#327,#328);
#330=CIRCLE('',#329,2.);
#331=EDGE_CURVE('',#319,#271,#330,.T.);
#332=ORIENTED_EDGE('',*,*,#331,.T.);
#333=ORIENTED_EDGE('',*,*,#276,.T.);
#334=CARTESIAN_POINT('',(28.146904718,-27.5,0.));
#335=VERTEX_POINT('',#334);
#336=CARTESIAN_POINT('',(28.146904718,-27.5,0.));
#337=DIRECTION('',(-1.,-0.,0.));
#338=VECTOR('',#337,28.146904718);
#339=LINE('',#336,#338);
#340=EDGE_CURVE('',#335,#263,#339,.T.);
#341=ORIENTED_EDGE('',*,*,#340,.F.);
#342=CARTESIAN_POINT('',(28.146904718,-41.5,0.));
#343=VERTEX_POINT('',#342);
#344=CARTESIAN_POINT('',(28.146904718,-27.5,0.));
#345=DIRECTION('',(0.,-1.,0.));
#346=VECTOR('',#345,14.);
#347=LINE('',#344,#346);
#348=EDGE_CURVE('',#335,#343,#347,.T.);
#349=ORIENTED_EDGE('',*,*,#348,.T.);
#350=CARTESIAN_POINT('',(28.146904718,-41.5,0.));
#351=DIRECTION('',(1.,0.,-0.));
#352=VECTOR('',#351,11.853095282);
#353=LINE('',#350,#352);
#354=EDGE_CURVE('',#343,#181,#353,.T.);
#355=ORIENTED_EDGE('',*,*,#354,.T.);
#356=ORIENTED_EDGE('',*,*,#186,.T.);
#357=CARTESIAN_POINT('',(28.146904718,-8.5,0.));
#358=VERTEX_POINT('',#357);
#359=CARTESIAN_POINT('',(40.,-8.5,0.));
#360=DIRECTION('',(-1.,0.,0.));
#361=VECTOR('',#360,11.853095282);
#362=LINE('',#359,#361);
#363=EDGE_CURVE('',#173,#358,#362,.T.);
#364=ORIENTED_EDGE('',*,*,#363,.T.);
#365=CARTESIAN_POINT('',(28.146904718,-22.5,0.));
#366=VERTEX_POINT('',#365);
#367=CARTESIAN_POINT('',(28.146904718,-8.5,0.));
#368=DIRECTION('',(0.,-1.,0.));
#369=VECTOR('',#368,14.);
#370=LINE('',#367,#369);
#371=EDGE_CURVE('',#358,#366,#370,.T.);
#372=ORIENTED_EDGE('',*,*,#371,.T.);
#373=CARTESIAN_POINT('',(0.,-22.5,0.));
#374=DIRECTION('',(1.,0.,0.));
#375=VECTOR('',#374,28.146904718);
#376=LINE('',#373,#375);
#377=EDGE_CURVE('',#221,#366,#376,.T.);
#378=ORIENTED_EDGE('',*,*,#377,.F.);
#379=EDGE_LOOP('',(#292,#301,#309,#317,#325,#332,#333,#341,#349,#355,#356,#364,#372,#378));
#380=FACE_BOUND('',#379,.T.);
#381=ADVANCED_FACE('',(#380),#291,.F.);
#382=CARTESIAN_POINT('',(8.937917952,-50.,39.498696926));
#383=DIRECTION('',(0.536875492,0.,-0.843661488));
#384=DIRECTION('',(-0.843661488,0.,-0.536875492));
#385=AXIS2_PLACEMENT_3D('',#382,#383,#384);
#386=PLANE('',#385);
#387=CARTESIAN_POINT('',(13.15622539,-8.,42.183074387));
#388=VERTEX_POINT('',#387);
#389=CARTESIAN_POINT('',(4.719610513,-8.,36.814319465));
#390=VERTEX_POINT('',#389);
#391=CARTESIAN_POINT('',(13.15622539,-8.,42.183074387));
#392=DIRECTION('',(-0.843661488,0.,-0.536875492));
#393=VECTOR('',#392,10.);
#394=LINE('',#391,#393);
#395=EDGE_CURVE('',#388,#390,#394,.T.);
#396=ORIENTED_EDGE('',*,*,#395,.T.);
#397=CARTESIAN_POINT('',(4.719610513,-42.,36.814319465));
#398=VERTEX_POINT('',#397);
#399=CARTESIAN_POINT('',(4.719610513,-8.,36.814319465));
#400=DIRECTION('',(-0.,-1.,-0.));
#401=VECTOR('',#400,34.);
#402=LINE('',#399,#401);
#403=EDGE_CURVE('',#390,#398,#402,.T.);
#404=ORIENTED_EDGE('',*,*,#403,.T.);
#405=CARTESIAN_POINT('',(13.15622539,-42.,42.183074387));
#406=VERTEX_POINT('',#405);
#407=CARTESIAN_POINT('',(4.719610513,-42.,36.814319465));
#408=DIRECTION('',(0.843661488,-0.,0.536875492));
#409=VECTOR('',#408,10.);
#410=LINE('',#407,#409);
#411=EDGE_CURVE('',#398,#406,#410,.T.);
#412=ORIENTED_EDGE('',*,*,#411,.T.);
#413=CARTESIAN_POINT('',(13.15622539,-42.,42.183074387));
#414=DIRECTION('',(0.,1.,0.));
#415=VECTOR('',#414,34.);
#416=LINE('',#413,#415);
#417=EDGE_CURVE('',#406,#388,#416,.T.);
#418=ORIENTED_EDGE('',*,*,#417,.T.);
#419=EDGE_LOOP('',(#396,#404,#412,#418));
#420=FACE_BOUND('',#419,.T.);
#421=ADVANCED_FACE('',(#420),#386,.F.);
#422=CARTESIAN_POINT('',(14.248493919,-50.,18.115101309));
#423=DIRECTION('',(-0.843661488,0.,-0.536875492));
#424=DIRECTION('',(-0.536875492,0.,0.843661488));
#425=AXIS2_PLACEMENT_3D('',#422,#423,#424);
#426=PLANE('',#425);
#427=CARTESIAN_POINT('',(4.106038522,-8.,34.053245505));
#428=VERTEX_POINT('',#427);
#429=CARTESIAN_POINT('',(17.456625944,-8.,13.073750984));
#430=VERTEX_POINT('',#429);
#431=CARTESIAN_POINT('',(4.106038522,-8.,34.053245505));
#432=DIRECTION('',(0.536875492,-0.,-0.843661488));
#433=VECTOR('',#432,24.867194752);
#434=LINE('',#431,#433);
#435=EDGE_CURVE('',#428,#430,#434,.T.);
#436=ORIENTED_EDGE('',*,*,#435,.T.);
#437=CARTESIAN_POINT('',(17.456625944,-42.,13.073750984));
#438=VERTEX_POINT('',#437);
#439=CARTESIAN_POINT('',(17.456625944,-8.,13.073750984));
#440=DIRECTION('',(-0.,-1.,-0.));
#441=VECTOR('',#440,34.);
#442=LINE('',#439,#441);
#443=EDGE_CURVE('',#430,#438,#442,.T.);
#444=ORIENTED_EDGE('',*,*,#443,.T.);
#445=CARTESIAN_POINT('',(4.106038522,-42.,34.053245505));
#446=VERTEX_POINT('',#445);
#447=CARTESIAN_POINT('',(17.456625944,-42.,13.073750984));
#448=DIRECTION('',(-0.536875492,0.,0.843661488));
#449=VECTOR('',#448,24.867194752);
#450=LINE('',#447,#449);
#451=EDGE_CURVE('',#438,#446,#450,.T.);
#452=ORIENTED_EDGE('',*,*,#451,.T.);
#453=CARTESIAN_POINT('',(4.106038522,-42.,34.053245505));
#454=DIRECTION('',(0.,1.,0.));
#455=VECTOR('',#454,34.);
#456=LINE('',#453,#455);
#457=EDGE_CURVE('',#446,#428,#456,.T.);
#458=ORIENTED_EDGE('',*,*,#457,.T.);
#459=EDGE_LOOP('',(#436,#444,#452,#458));
#460=FACE_BOUND('',#459,.T.);
#461=ADVANCED_FACE('',(#460),#426,.T.);
#462=CARTESIAN_POINT('',(10.891634177,-50.,10.));
#463=DIRECTION('',(0.,0.,1.));
#464=DIRECTION('',(1.,0.,-0.));
#465=AXIS2_PLACEMENT_3D('',#462,#463,#464);
#466=PLANE('',#465);
#467=CARTESIAN_POINT('',(15.769302969,-8.,10.));
#468=VERTEX_POINT('',#467);
#469=CARTESIAN_POINT('',(2.,-8.,10.));
#470=VERTEX_POINT('',#469);
#471=CARTESIAN_POINT('',(15.769302969,-8.,10.));
#472=DIRECTION('',(-1.,-0.,0.));
#473=VECTOR('',#472,13.769302969);
#474=LINE('',#471,#473);
#475=EDGE_CURVE('',#468,#470,#474,.T.);
#476=ORIENTED_EDGE('',*,*,#475,.T.);
#477=CARTESIAN_POINT('',(2.,-42.,10.));
#478=VERTEX_POINT('',#477);
#479=CARTESIAN_POINT('',(2.,-8.,10.));
#480=DIRECTION('',(-0.,-1.,-0.));
#481=VECTOR('',#480,34.);
#482=LINE('',#479,#481);
#483=EDGE_CURVE('',#470,#478,#482,.T.);
#484=ORIENTED_EDGE('',*,*,#483,.T.);
#485=CARTESIAN_POINT('',(15.769302969,-42.,10.));
#486=VERTEX_POINT('',#485);
#487=CARTESIAN_POINT('',(2.,-42.,10.));
#488=DIRECTION('',(1.,0.,-0.));
#489=VECTOR('',#488,13.769302969);
#490=LINE('',#487,#489);
#491=EDGE_CURVE('',#478,#486,#490,.T.);
#492=ORIENTED_EDGE('',*,*,#491,.T.);
#493=CARTESIAN_POINT('',(15.769302969,-42.,10.));
#494=DIRECTION('',(0.,1.,0.));
#495=VECTOR('',#494,34.);
#496=LINE('',#493,#495);
#497=EDGE_CURVE('',#486,#468,#496,.T.);
#498=ORIENTED_EDGE('',*,*,#497,.T.);
#499=EDGE_LOOP('',(#476,#484,#492,#498));
#500=FACE_BOUND('',#499,.T.);
#501=ADVANCED_FACE('',(#500),#466,.T.);
#502=CARTESIAN_POINT('',(0.,-44.,0.));
#503=DIRECTION('',(0.,-1.,0.));
#504=DIRECTION('',(1.,0.,0.));
#505=AXIS2_PLACEMENT_3D('',#502,#503,#504);
#506=PLANE('',#505);
#507=CARTESIAN_POINT('',(15.769302969,-44.,8.));
#508=VERTEX_POINT('',#507);
#509=CARTESIAN_POINT('',(2.,-44.,8.));
#510=VERTEX_POINT('',#509);
#511=CARTESIAN_POINT('',(15.769302969,-44.,8.));
#512=DIRECTION('',(-1.,-0.,0.));
#513=VECTOR('',#512,13.769302969);
#514=LINE('',#511,#513);
#515=EDGE_CURVE('',#508,#510,#514,.T.);
#516=ORIENTED_EDGE('',*,*,#515,.T.);
#517=CARTESIAN_POINT('',(2.,-44.,8.));
#518=DIRECTION('',(-0.,-0.,-1.));
#519=VECTOR('',#518,8.);
#520=LINE('',#517,#519);
#521=EDGE_CURVE('',#510,#319,#520,.T.);
#522=ORIENTED_EDGE('',*,*,#521,.T.);
#523=ORIENTED_EDGE('',*,*,#324,.T.);
#524=CARTESIAN_POINT('',(44.626135208,-44.,4.991257045));
#525=VERTEX_POINT('',#524);
#526=CARTESIAN_POINT('',(39.686241595,-44.,4.218307439));
#527=DIRECTION('',(0.,-1.,0.));
#528=DIRECTION('',(0.,0.,-1.));
#529=AXIS2_PLACEMENT_3D('',#526,#527,#528);
#530=CIRCLE('',#529,5.);
#531=EDGE_CURVE('',#311,#525,#530,.T.);
#532=ORIENTED_EDGE('',*,*,#531,.T.);
#533=CARTESIAN_POINT('',(39.072669604,-44.,1.457233479));
#534=VERTEX_POINT('',#533);
#535=CARTESIAN_POINT('',(44.626135208,-44.,4.991257045));
#536=DIRECTION('',(-0.843661488,0.,-0.536875492));
#537=VECTOR('',#536,6.582575695);
#538=LINE('',#535,#537);
#539=EDGE_CURVE('',#525,#534,#538,.T.);
#540=ORIENTED_EDGE('',*,*,#539,.T.);
#541=CARTESIAN_POINT('',(14.229976375,-44.,40.495751411));
#542=VERTEX_POINT('',#541);
#543=CARTESIAN_POINT('',(39.072669604,-44.,1.457233479));
#544=DIRECTION('',(-0.536875492,0.,0.843661488));
#545=VECTOR('',#544,46.272727273);
#546=LINE('',#543,#545);
#547=EDGE_CURVE('',#534,#542,#546,.T.);
#548=ORIENTED_EDGE('',*,*,#547,.T.);
#549=CARTESIAN_POINT('',(5.793361497,-44.,35.126996489));
#550=VERTEX_POINT('',#549);
#551=CARTESIAN_POINT('',(14.229976375,-44.,40.495751411));
#552=DIRECTION('',(-0.843661488,0.,-0.536875492));
#553=VECTOR('',#552,10.);
#554=LINE('',#551,#553);
#555=EDGE_CURVE('',#542,#550,#554,.T.);
#556=ORIENTED_EDGE('',*,*,#555,.T.);
#557=CARTESIAN_POINT('',(19.14394892,-44.,14.147501969));
#558=VERTEX_POINT('',#557);
#559=CARTESIAN_POINT('',(5.793361497,-44.,35.126996489));
#560=DIRECTION('',(0.536875492,-0.,-0.843661488));
#561=VECTOR('',#560,24.867194752);
#562=LINE('',#559,#561);
#563=EDGE_CURVE('',#550,#558,#562,.T.);
#564=ORIENTED_EDGE('',*,*,#563,.T.);
#565=CARTESIAN_POINT('',(15.769302969,-44.,12.));
#566=DIRECTION('',(-0.,1.,-0.));
#567=DIRECTION('',(0.,0.,-1.));
#568=AXIS2_PLACEMENT_3D('',#565,#566,#567);
#569=CIRCLE('',#568,4.);
#570=EDGE_CURVE('',#558,#508,#569,.T.);
#571=ORIENTED_EDGE('',*,*,#570,.T.);
#572=EDGE_LOOP('',(#516,#522,#523,#532,#540,#548,#556,#564,#571));
#573=FACE_BOUND('',#572,.T.);
#574=ADVANCED_FACE('',(#573),#506,.T.);
#575=CARTESIAN_POINT('',(0.,-6.,0.));
#576=DIRECTION('',(0.,-1.,0.));
#577=DIRECTION('',(1.,0.,0.));
#578=AXIS2_PLACEMENT_3D('',#575,#576,#577);
#579=PLANE('',#578);
#580=ORIENTED_EDGE('',*,*,#308,.F.);
#581=CARTESIAN_POINT('',(2.,-6.,8.));
#582=VERTEX_POINT('',#581);
#583=CARTESIAN_POINT('',(2.,-6.,0.));
#584=DIRECTION('',(0.,0.,1.));
#585=VECTOR('',#584,8.);
#586=LINE('',#583,#585);
#587=EDGE_CURVE('',#294,#582,#586,.T.);
#588=ORIENTED_EDGE('',*,*,#587,.T.);
#589=CARTESIAN_POINT('',(15.769302969,-6.,8.));
#590=VERTEX_POINT('',#589);
#591=CARTESIAN_POINT('',(2.,-6.,8.));
#592=DIRECTION('',(1.,0.,-0.));
#593=VECTOR('',#592,13.769302969);
#594=LINE('',#591,#593);
#595=EDGE_CURVE('',#582,#590,#594,.T.);
#596=ORIENTED_EDGE('',*,*,#595,.T.);
#597=CARTESIAN_POINT('',(19.14394892,-6.,14.147501969));
#598=VERTEX_POINT('',#597);
#599=CARTESIAN_POINT('',(15.769302969,-6.,12.));
#600=DIRECTION('',(0.,-1.,0.));
#601=DIRECTION('',(0.,0.,-1.));
#602=AXIS2_PLACEMENT_3D('',#599,#600,#601);
#603=CIRCLE('',#602,4.);
#604=EDGE_CURVE('',#590,#598,#603,.T.);
#605=ORIENTED_EDGE('',*,*,#604,.T.);
#606=CARTESIAN_POINT('',(5.793361497,-6.,35.126996489));
#607=VERTEX_POINT('',#606);
#608=CARTESIAN_POINT('',(19.14394892,-6.,14.147501969));
#609=DIRECTION('',(-0.536875492,0.,0.843661488));
#610=VECTOR('',#609,24.867194752);
#611=LINE('',#608,#610);
#612=EDGE_CURVE('',#598,#607,#611,.T.);
#613=ORIENTED_EDGE('',*,*,#612,.T.);
#614=CARTESIAN_POINT('',(14.229976375,-6.,40.495751411));
#615=VERTEX_POINT('',#614);
#616=CARTESIAN_POINT('',(5.793361497,-6.,35.126996489));
#617=DIRECTION('',(0.843661488,-0.,0.536875492));
#618=VECTOR('',#617,10.);
#619=LINE('',#616,#618);
#620=EDGE_CURVE('',#607,#615,#619,.T.);
#621=ORIENTED_EDGE('',*,*,#620,.T.);
#622=CARTESIAN_POINT('',(39.072669604,-6.,1.457233479));
#623=VERTEX_POINT('',#622);
#624=CARTESIAN_POINT('',(14.229976375,-6.,40.495751411));
#625=DIRECTION('',(0.536875492,-0.,-0.843661488));
#626=VECTOR('',#625,46.272727273);
#627=LINE('',#624,#626);
#628=EDGE_CURVE('',#615,#623,#627,.T.);
#629=ORIENTED_EDGE('',*,*,#628,.T.);
#630=CARTESIAN_POINT('',(44.626135208,-6.,4.991257045));
#631=VERTEX_POINT('',#630);
#632=CARTESIAN_POINT('',(39.072669604,-6.,1.457233479));
#633=DIRECTION('',(0.843661488,-0.,0.536875492));
#634=VECTOR('',#633,6.582575695);
#635=LINE('',#632,#634);
#636=EDGE_CURVE('',#623,#631,#635,.T.);
#637=ORIENTED_EDGE('',*,*,#636,.T.);
#638=CARTESIAN_POINT('',(39.686241595,-6.,4.218307439));
#639=DIRECTION('',(-0.,1.,-0.));
#640=DIRECTION('',(0.,0.,-1.));
#641=AXIS2_PLACEMENT_3D('',#638,#639,#640);
#642=CIRCLE('',#641,5.);
#643=EDGE_CURVE('',#631,#303,#642,.T.);
#644=ORIENTED_EDGE('',*,*,#643,.T.);
#645=EDGE_LOOP('',(#580,#588,#596,#605,#613,#621,#629,#637,#644));
#646=FACE_BOUND('',#645,.T.);
#647=ADVANCED_FACE('',(#646),#579,.F.);
#648=CARTESIAN_POINT('',(48.206525381,-25.,-31.522261042));
#649=DIRECTION('',(-0.843661488,0.,-0.536875492));
#650=DIRECTION('',(-0.536875492,0.,0.843661488));
#651=AXIS2_PLACEMENT_3D('',#648,#649,#650);
#652=PLANE('',#651);
#653=CARTESIAN_POINT('',(7.940863466,-24.9,31.752350538));
#654=VERTEX_POINT('',#653);
#655=CARTESIAN_POINT('',(7.940863466,-25.1,31.752350538));
#656=VERTEX_POINT('',#655);
#657=CARTESIAN_POINT('',(7.940863466,-24.9,31.752350538));
#658=DIRECTION('',(0.,-1.,0.));
#659=VECTOR('',#658,0.2);
#660=LINE('',#657,#659);
#661=EDGE_CURVE('',#654,#656,#660,.T.);
#662=ORIENTED_EDGE('',*,*,#661,.T.);
#663=CARTESIAN_POINT('',(16.745621538,-41.5,17.916302139));
#664=VERTEX_POINT('',#663);
#665=CARTESIAN_POINT('',(16.745621538,-25.1,17.916302139));
#666=DIRECTION('',(0.843661488,-0.,0.536875492));
#667=DIRECTION('',(-0.536875492,0.,0.843661488));
#668=AXIS2_PLACEMENT_3D('',#665,#666,#667);
#669=CIRCLE('',#668,16.4);
#670=EDGE_CURVE('',#656,#664,#669,.T.);
#671=ORIENTED_EDGE('',*,*,#670,.T.);
#672=CARTESIAN_POINT('',(28.146904718,-41.5,0.));
#673=DIRECTION('',(-0.536875492,0.,0.843661488));
#674=VECTOR('',#673,21.236363636);
#675=LINE('',#672,#674);
#676=EDGE_CURVE('',#343,#664,#675,.T.);
#677=ORIENTED_EDGE('',*,*,#676,.F.);
#678=ORIENTED_EDGE('',*,*,#348,.F.);
#679=CARTESIAN_POINT('',(27.955995627,-27.5,0.3));
#680=VERTEX_POINT('',#679);
#681=CARTESIAN_POINT('',(28.146904718,-27.5,0.));
#682=DIRECTION('',(-0.536875492,-0.,0.843661488));
#683=VECTOR('',#682,0.355592858);
#684=LINE('',#681,#683);
#685=EDGE_CURVE('',#335,#680,#684,.T.);
#686=ORIENTED_EDGE('',*,*,#685,.T.);
#687=CARTESIAN_POINT('',(26.492359263,-25.2,2.6));
#688=VERTEX_POINT('',#687);
#689=CARTESIAN_POINT('',(27.955995627,-25.2,0.3));
#690=DIRECTION('',(-0.843661488,0.,-0.536875492));
#691=DIRECTION('',(-0.536875492,-0.,0.843661488));
#692=AXIS2_PLACEMENT_3D('',#689,#690,#691);
#693=ELLIPSE('',#692,2.726211915,2.3);
#694=EDGE_CURVE('',#680,#688,#693,.T.);
#695=ORIENTED_EDGE('',*,*,#694,.T.);
#696=CARTESIAN_POINT('',(26.492359263,-24.8,2.6));
#697=VERTEX_POINT('',#696);
#698=CARTESIAN_POINT('',(26.492359263,-24.8,2.6));
#699=DIRECTION('',(0.,-1.,0.));
#700=VECTOR('',#699,0.4);
#701=LINE('',#698,#700);
#702=EDGE_CURVE('',#697,#688,#701,.T.);
#703=ORIENTED_EDGE('',*,*,#702,.F.);
#704=CARTESIAN_POINT('',(27.955995627,-22.5,0.3));
#705=VERTEX_POINT('',#704);
#706=CARTESIAN_POINT('',(27.955995627,-24.8,0.3));
#707=DIRECTION('',(-0.843661488,0.,-0.536875492));
#708=DIRECTION('',(0.536875492,0.,-0.843661488));
#709=AXIS2_PLACEMENT_3D('',#706,#707,#708);
#710=ELLIPSE('',#709,2.726211915,2.3);
#711=EDGE_CURVE('',#697,#705,#710,.T.);
#712=ORIENTED_EDGE('',*,*,#711,.T.);
#713=CARTESIAN_POINT('',(27.955995627,-22.5,0.3));
#714=DIRECTION('',(0.536875492,0.,-0.843661488));
#715=VECTOR('',#714,0.355592858);
#716=LINE('',#713,#715);
#717=EDGE_CURVE('',#705,#366,#716,.T.);
#718=ORIENTED_EDGE('',*,*,#717,.T.);
#719=ORIENTED_EDGE('',*,*,#371,.F.);
#720=CARTESIAN_POINT('',(16.745621538,-8.5,17.916302139));
#721=VERTEX_POINT('',#720);
#722=CARTESIAN_POINT('',(28.146904718,-8.5,0.));
#723=DIRECTION('',(-0.536875492,0.,0.843661488));
#724=VECTOR('',#723,21.236363636);
#725=LINE('',#722,#724);
#726=EDGE_CURVE('',#358,#721,#725,.T.);
#727=ORIENTED_EDGE('',*,*,#726,.T.);
#728=CARTESIAN_POINT('',(16.745621538,-24.9,17.916302139));
#729=DIRECTION('',(0.843661488,-0.,0.536875492));
#730=DIRECTION('',(-0.536875492,0.,0.843661488));
#731=AXIS2_PLACEMENT_3D('',#728,#729,#730);
#732=CIRCLE('',#731,16.4);
#733=EDGE_CURVE('',#721,#654,#732,.T.);
#734=ORIENTED_EDGE('',*,*,#733,.T.);
#735=EDGE_LOOP('',(#662,#671,#677,#678,#686,#695,#703,#712,#718,#719,#727,#734));
#736=FACE_BOUND('',#735,.T.);
#737=ADVANCED_FACE('',(#736),#652,.F.);
#738=CARTESIAN_POINT('',(52.424832819,-41.5,-28.837883581));
#739=DIRECTION('',(0.,-1.,0.));
#740=DIRECTION('',(0.,0.,-1.));
#741=AXIS2_PLACEMENT_3D('',#738,#739,#740);
#742=PLANE('',#741);
#743=ORIENTED_EDGE('',*,*,#676,.T.);
#744=CARTESIAN_POINT('',(25.182236415,-41.5,23.285057061));
#745=VERTEX_POINT('',#744);
#746=CARTESIAN_POINT('',(16.745621538,-41.5,17.916302139));
#747=DIRECTION('',(0.843661488,0.,0.536875492));
#748=VECTOR('',#747,10.);
#749=LINE('',#746,#748);
#750=EDGE_CURVE('',#664,#745,#749,.T.);
#751=ORIENTED_EDGE('',*,*,#750,.T.);
#752=CARTESIAN_POINT('',(25.182236415,-41.5,23.285057061));
#753=DIRECTION('',(0.843661488,0.,0.536875492));
#754=VECTOR('',#753,2.);
#755=LINE('',#752,#754);
#756=EDGE_CURVE('',#745,#69,#755,.T.);
#757=ORIENTED_EDGE('',*,*,#756,.T.);
#758=ORIENTED_EDGE('',*,*,#133,.F.);
#759=CARTESIAN_POINT('',(25.236086653,-41.5,23.20043526));
#760=DIRECTION('',(0.843661488,0.,0.536875492));
#761=VECTOR('',#760,2.);
#762=LINE('',#759,#761);
#763=EDGE_CURVE('',#144,#121,#762,.T.);
#764=ORIENTED_EDGE('',*,*,#763,.F.);
#765=ORIENTED_EDGE('',*,*,#192,.F.);
#766=ORIENTED_EDGE('',*,*,#354,.F.);
#767=EDGE_LOOP('',(#743,#751,#757,#758,#764,#765,#766));
#768=FACE_BOUND('',#767,.T.);
#769=ADVANCED_FACE('',(#768),#742,.F.);
#770=CARTESIAN_POINT('',(56.643140258,-25.,-26.15350612));
#771=DIRECTION('',(0.843661488,0.,0.536875492));
#772=DIRECTION('',(0.536875492,0.,-0.843661488));
#773=AXIS2_PLACEMENT_3D('',#770,#771,#772);
#774=PLANE('',#773);
#775=CARTESIAN_POINT('',(16.377478344,-25.1,37.12110546));
#776=VERTEX_POINT('',#775);
#777=CARTESIAN_POINT('',(25.182236415,-25.1,23.285057061));
#778=DIRECTION('',(-0.843661488,-0.,-0.536875492));
#779=DIRECTION('',(0.536875492,0.,-0.843661488));
#780=AXIS2_PLACEMENT_3D('',#777,#778,#779);
#781=CIRCLE('',#780,16.4);
#782=EDGE_CURVE('',#745,#776,#781,.T.);
#783=ORIENTED_EDGE('',*,*,#782,.T.);
#784=CARTESIAN_POINT('',(25.235923965,-25.,23.200690913));
#785=DIRECTION('',(0.843661488,0.,0.536875492));
#786=DIRECTION('',(-0.536865632,-0.006060495,0.843645994));
#787=AXIS2_PLACEMENT_3D('',#784,#785,#786);
#788=CIRCLE('',#787,16.500303028);
#789=EDGE_CURVE('',#776,#745,#788,.T.);
#790=ORIENTED_EDGE('',*,*,#789,.T.);
#791=EDGE_LOOP('',(#783,#790));
#792=FACE_BOUND('',#791,.T.);
#793=ADVANCED_FACE('',(#792),#774,.F.);
#794=CARTESIAN_POINT('',(52.424832819,-8.5,-28.837883581));
#795=DIRECTION('',(0.,1.,0.));
#796=DIRECTION('',(0.,0.,1.));
#797=AXIS2_PLACEMENT_3D('',#794,#795,#796);
#798=PLANE('',#797);
#799=ORIENTED_EDGE('',*,*,#178,.T.);
#800=CARTESIAN_POINT('',(25.342814913,-8.5,23.032719422));
#801=DIRECTION('',(0.843661488,0.,0.536875492));
#802=VECTOR('',#801,2.);
#803=LINE('',#800,#802);
#804=EDGE_CURVE('',#164,#95,#803,.T.);
#805=ORIENTED_EDGE('',*,*,#804,.T.);
#806=ORIENTED_EDGE('',*,*,#100,.T.);
#807=CARTESIAN_POINT('',(26.869559391,-8.5,24.358808046));
#808=DIRECTION('',(-0.843661488,0.,-0.536875492));
#809=VECTOR('',#808,12.);
#810=LINE('',#807,#809);
#811=EDGE_CURVE('',#86,#721,#810,.T.);
#812=ORIENTED_EDGE('',*,*,#811,.T.);
#813=ORIENTED_EDGE('',*,*,#726,.F.);
#814=ORIENTED_EDGE('',*,*,#363,.F.);
#815=EDGE_LOOP('',(#799,#805,#806,#812,#813,#814));
#816=FACE_BOUND('',#815,.T.);
#817=ADVANCED_FACE('',(#816),#798,.F.);
#818=CARTESIAN_POINT('',(21.185309528,-22.5,2.6));
#819=DIRECTION('',(-0.,1.,0.));
#820=DIRECTION('',(-1.,-0.,0.));
#821=AXIS2_PLACEMENT_3D('',#818,#819,#820);
#822=PLANE('',#821);
#823=ORIENTED_EDGE('',*,*,#717,.F.);
#824=CARTESIAN_POINT('',(27.955995627,-22.5,0.3));
#825=DIRECTION('',(-1.,-0.,-0.));
#826=VECTOR('',#825,27.955995627);
#827=LINE('',#824,#826);
#828=EDGE_CURVE('',#705,#229,#827,.T.);
#829=ORIENTED_EDGE('',*,*,#828,.T.);
#830=ORIENTED_EDGE('',*,*,#234,.F.);
#831=ORIENTED_EDGE('',*,*,#377,.T.);
#832=EDGE_LOOP('',(#823,#829,#830,#831));
#833=FACE_BOUND('',#832,.T.);
#834=ADVANCED_FACE('',(#833),#822,.F.);
#835=CARTESIAN_POINT('',(21.185309528,-27.5,2.6));
#836=DIRECTION('',(0.,-1.,0.));
#837=DIRECTION('',(1.,0.,0.));
#838=AXIS2_PLACEMENT_3D('',#835,#836,#837);
#839=PLANE('',#838);
#840=ORIENTED_EDGE('',*,*,#268,.T.);
#841=CARTESIAN_POINT('',(0.,-27.5,0.3));
#842=DIRECTION('',(1.,0.,-0.));
#843=VECTOR('',#842,27.955995627);
#844=LINE('',#841,#843);
#845=EDGE_CURVE('',#254,#680,#844,.T.);
#846=ORIENTED_EDGE('',*,*,#845,.T.);
#847=ORIENTED_EDGE('',*,*,#685,.F.);
#848=ORIENTED_EDGE('',*,*,#340,.T.);
#849=EDGE_LOOP('',(#840,#846,#847,#848));
#850=FACE_BOUND('',#849,.T.);
#851=ADVANCED_FACE('',(#850),#839,.F.);
#852=CARTESIAN_POINT('',(0.,0.,2.6));
#853=DIRECTION('',(0.,0.,-1.));
#854=DIRECTION('',(0.,1.,0.));
#855=AXIS2_PLACEMENT_3D('',#852,#853,#854);
#856=PLANE('',#855);
#857=ORIENTED_EDGE('',*,*,#702,.T.);
#858=CARTESIAN_POINT('',(26.492359263,-25.2,2.6));
#859=DIRECTION('',(-1.,-0.,0.));
#860=VECTOR('',#859,26.492359263);
#861=LINE('',#858,#860);
#862=EDGE_CURVE('',#688,#246,#861,.T.);
#863=ORIENTED_EDGE('',*,*,#862,.T.);
#864=ORIENTED_EDGE('',*,*,#251,.F.);
#865=CARTESIAN_POINT('',(0.,-24.8,2.6));
#866=DIRECTION('',(1.,0.,0.));
#867=VECTOR('',#866,26.492359263);
#868=LINE('',#865,#867);
#869=EDGE_CURVE('',#237,#697,#868,.T.);
#870=ORIENTED_EDGE('',*,*,#869,.T.);
#871=EDGE_LOOP('',(#857,#863,#864,#870));
#872=FACE_BOUND('',#871,.T.);
#873=ADVANCED_FACE('',(#872),#856,.T.);
#874=CARTESIAN_POINT('',(0.,-25.2,0.3));
#875=DIRECTION('',(-1.,-0.,0.));
#876=DIRECTION('',(0.,-1.,0.));
#877=AXIS2_PLACEMENT_3D('',#874,#875,#876);
#878=CYLINDRICAL_SURFACE('',#877,2.3);
#879=ORIENTED_EDGE('',*,*,#694,.F.);
#880=ORIENTED_EDGE('',*,*,#845,.F.);
#881=ORIENTED_EDGE('',*,*,#260,.F.);
#882=ORIENTED_EDGE('',*,*,#862,.F.);
#883=EDGE_LOOP('',(#879,#880,#881,#882));
#884=FACE_BOUND('',#883,.T.);
#885=ADVANCED_FACE('',(#884),#878,.F.);
#886=CARTESIAN_POINT('',(0.,-24.8,0.3));
#887=DIRECTION('',(1.,0.,0.));
#888=DIRECTION('',(-0.,1.,0.));
#889=AXIS2_PLACEMENT_3D('',#886,#887,#888);
#890=CYLINDRICAL_SURFACE('',#889,2.3);
#891=ORIENTED_EDGE('',*,*,#243,.F.);
#892=ORIENTED_EDGE('',*,*,#828,.F.);
#893=ORIENTED_EDGE('',*,*,#711,.F.);
#894=ORIENTED_EDGE('',*,*,#869,.F.);
#895=EDGE_LOOP('',(#891,#892,#893,#894));
#896=FACE_BOUND('',#895,.T.);
#897=ADVANCED_FACE('',(#896),#890,.F.);
#898=CARTESIAN_POINT('',(-12.093109892,0.,19.003458401));
#899=DIRECTION('',(-0.536875492,0.,0.843661488));
#900=DIRECTION('',(0.,-1.,0.));
#901=AXIS2_PLACEMENT_3D('',#898,#899,#900);
#902=PLANE('',#901);
#903=CARTESIAN_POINT('',(7.940863466,-24.9,31.752350538));
#904=DIRECTION('',(0.843661488,-0.,0.536875492));
#905=VECTOR('',#904,12.);
#906=LINE('',#903,#905);
#907=EDGE_CURVE('',#654,#78,#906,.T.);
#908=ORIENTED_EDGE('',*,*,#907,.T.);
#909=ORIENTED_EDGE('',*,*,#83,.F.);
#910=CARTESIAN_POINT('',(16.377478344,-25.1,37.12110546));
#911=DIRECTION('',(0.843661488,0.,0.536875492));
#912=VECTOR('',#911,2.);
#913=LINE('',#910,#912);
#914=EDGE_CURVE('',#776,#67,#913,.T.);
#915=ORIENTED_EDGE('',*,*,#914,.F.);
#916=CARTESIAN_POINT('',(16.377478344,-25.1,37.12110546));
#917=DIRECTION('',(-0.843661488,-0.,-0.536875492));
#918=VECTOR('',#917,10.);
#919=LINE('',#916,#918);
#920=EDGE_CURVE('',#776,#656,#919,.T.);
#921=ORIENTED_EDGE('',*,*,#920,.T.);
#922=ORIENTED_EDGE('',*,*,#661,.F.);
#923=EDGE_LOOP('',(#908,#909,#915,#921,#922));
#924=FACE_BOUND('',#923,.T.);
#925=ADVANCED_FACE('',(#924),#902,.F.);
#926=CARTESIAN_POINT('',(20.963928977,-25.1,20.6006796));
#927=DIRECTION('',(-0.843661488,0.,-0.536875492));
#928=DIRECTION('',(-0.536875492,0.,0.843661488));
#929=AXIS2_PLACEMENT_3D('',#926,#927,#928);
#930=CYLINDRICAL_SURFACE('',#929,16.4);
#931=ORIENTED_EDGE('',*,*,#670,.F.);
#932=ORIENTED_EDGE('',*,*,#920,.F.);
#933=ORIENTED_EDGE('',*,*,#782,.F.);
#934=ORIENTED_EDGE('',*,*,#750,.F.);
#935=EDGE_LOOP('',(#931,#932,#933,#934));
#936=FACE_BOUND('',#935,.T.);
#937=ADVANCED_FACE('',(#936),#930,.F.);
#938=CARTESIAN_POINT('',(20.963928977,-24.9,20.6006796));
#939=DIRECTION('',(0.843661488,0.,0.536875492));
#940=DIRECTION('',(0.536875492,0.,-0.843661488));
#941=AXIS2_PLACEMENT_3D('',#938,#939,#940);
#942=CYLINDRICAL_SURFACE('',#941,16.4);
#943=ORIENTED_EDGE('',*,*,#811,.F.);
#944=ORIENTED_EDGE('',*,*,#92,.T.);
#945=ORIENTED_EDGE('',*,*,#907,.F.);
#946=ORIENTED_EDGE('',*,*,#733,.F.);
#947=EDGE_LOOP('',(#943,#944,#945,#946));
#948=FACE_BOUND('',#947,.T.);
#949=ADVANCED_FACE('',(#948),#942,.F.);
#950=CARTESIAN_POINT('',(43.904549034,-25.,6.9026849));
#951=DIRECTION('',(-0.536875492,0.,0.843661488));
#952=DIRECTION('',(0.843661488,0.,0.536875492));
#953=AXIS2_PLACEMENT_3D('',#950,#951,#952);
#954=PLANE('',#953);
#955=CARTESIAN_POINT('',(43.904549034,-42.,6.9026849));
#956=VERTEX_POINT('',#955);
#957=CARTESIAN_POINT('',(43.904549034,-8.,6.9026849));
#958=VERTEX_POINT('',#957);
#959=CARTESIAN_POINT('',(43.904549034,-42.,6.9026849));
#960=DIRECTION('',(0.,1.,-0.));
#961=VECTOR('',#960,34.);
#962=LINE('',#959,#961);
#963=EDGE_CURVE('',#956,#958,#962,.T.);
#964=ORIENTED_EDGE('',*,*,#963,.T.);
#965=CARTESIAN_POINT('',(43.904549034,-8.,6.9026849));
#966=DIRECTION('',(-0.843661488,0.,-0.536875492));
#967=VECTOR('',#966,5.);
#968=LINE('',#965,#967);
#969=EDGE_CURVE('',#958,#33,#968,.T.);
#970=ORIENTED_EDGE('',*,*,#969,.T.);
#971=ORIENTED_EDGE('',*,*,#62,.F.);
#972=CARTESIAN_POINT('',(39.686241595,-42.,4.218307439));
#973=DIRECTION('',(0.843661488,-0.,0.536875492));
#974=VECTOR('',#973,5.);
#975=LINE('',#972,#974);
#976=EDGE_CURVE('',#51,#956,#975,.T.);
#977=ORIENTED_EDGE('',*,*,#976,.T.);
#978=EDGE_LOOP('',(#964,#970,#971,#977));
#979=FACE_BOUND('',#978,.T.);
#980=ADVANCED_FACE('',(#979),#954,.T.);
#981=CARTESIAN_POINT('',(39.686241595,-25.,4.218307439));
#982=DIRECTION('',(0.,-1.,0.));
#983=DIRECTION('',(0.,0.,-1.));
#984=AXIS2_PLACEMENT_3D('',#981,#982,#983);
#985=CYLINDRICAL_SURFACE('',#984,5.);
#986=ORIENTED_EDGE('',*,*,#643,.F.);
#987=CARTESIAN_POINT('',(44.626135208,-6.,4.991257045));
#988=CARTESIAN_POINT('',(44.605378697,-6.,5.123911175));
#989=CARTESIAN_POINT('',(44.579602746,-6.011269801,5.253705742));
#990=CARTESIAN_POINT('',(44.549263549,-6.034481198,5.380640215));
#991=CARTESIAN_POINT('',(44.518924351,-6.057692595,5.507574688));
#992=CARTESIAN_POINT('',(44.483522757,-6.093491685,5.63306339));
#993=CARTESIAN_POINT('',(44.445423507,-6.141249239,5.751339576));
#994=CARTESIAN_POINT('',(44.407324257,-6.189006794,5.869615762));
#995=CARTESIAN_POINT('',(44.366677942,-6.248302895,5.9807284));
#996=CARTESIAN_POINT('',(44.324752992,-6.319552161,6.08491185));
#997=CARTESIAN_POINT('',(44.282828041,-6.390801428,6.1890953));
#998=CARTESIAN_POINT('',(44.239535392,-6.474517965,6.286305212));
#999=CARTESIAN_POINT('',(44.198440922,-6.566659569,6.372386648));
#1000=CARTESIAN_POINT('',(44.116251982,-6.750942776,6.544549519));
#1001=CARTESIAN_POINT('',(44.040092161,-6.976214593,6.678934774));
#1002=CARTESIAN_POINT('',(43.987342024,-7.220535249,6.767922136));
#1003=CARTESIAN_POINT('',(43.960966955,-7.342695578,6.812415818));
#1004=CARTESIAN_POINT('',(43.939886915,-7.471811621,6.846463413));
#1005=CARTESIAN_POINT('',(43.925837896,-7.602480661,6.868934384));
#1006=CARTESIAN_POINT('',(43.911788877,-7.733149701,6.891405356));
#1007=CARTESIAN_POINT('',(43.904549034,-7.865642082,6.9026849));
#1008=CARTESIAN_POINT('',(43.904549034,-8.,6.9026849));
#1009=B_SPLINE_CURVE_WITH_KNOTS('',3,(#987,#988,#989,#990,#991,#992,#993,#994,#995,#996,#997,#998,#999,#1000,#1001,#1002,#1003,#1004,#1005,#1006,#1007,#1008),.UNSPECIFIED.,.F.,.F.,(4,3,3,3,3,3,3,4),(0.,0.000397491,0.000794982,0.001192473,0.001589964,0.002384945,0.002782436,0.003179927),.UNSPECIFIED.);
#1010=EDGE_CURVE('',#631,#958,#1009,.T.);
#1011=ORIENTED_EDGE('',*,*,#1010,.T.);
#1012=ORIENTED_EDGE('',*,*,#963,.F.);
#1013=CARTESIAN_POINT('',(43.904549034,-42.,6.9026849));
#1014=CARTESIAN_POINT('',(43.904549034,-42.134364531,6.9026849));
#1015=CARTESIAN_POINT('',(43.911787804,-42.266449949,6.891404707));
#1016=CARTESIAN_POINT('',(43.925712141,-42.396347943,6.869135516));
#1017=CARTESIAN_POINT('',(43.939636478,-42.526245937,6.846866325));
#1018=CARTESIAN_POINT('',(43.960597127,-42.655351562,6.81302747));
#1019=CARTESIAN_POINT('',(43.987036521,-42.778048389,6.768437437));
#1020=CARTESIAN_POINT('',(44.013475916,-42.900745216,6.723847403));
#1021=CARTESIAN_POINT('',(44.045178962,-43.017000608,6.668878975));
#1022=CARTESIAN_POINT('',(44.080982977,-43.126821246,6.602892978));
#1023=CARTESIAN_POINT('',(44.116786992,-43.236641885,6.536906981));
#1024=CARTESIAN_POINT('',(44.156899036,-43.340091245,6.45935476));
#1025=CARTESIAN_POINT('',(44.197951146,-43.432241639,6.373412292));
#1026=CARTESIAN_POINT('',(44.239003256,-43.524392032,6.287469825));
#1027=CARTESIAN_POINT('',(44.281407334,-43.606617552,6.19245573));
#1028=CARTESIAN_POINT('',(44.32371787,-43.67868669,6.087482069));
#1029=CARTESIAN_POINT('',(44.366028407,-43.750755828,5.982508408));
#1030=CARTESIAN_POINT('',(44.406978805,-43.810488125,5.870559243));
#1031=CARTESIAN_POINT('',(44.444936451,-43.858139774,5.752850781));
#1032=CARTESIAN_POINT('',(44.482894097,-43.905791422,5.635142318));
#1033=CARTESIAN_POINT('',(44.518314106,-43.941773726,5.509956158));
#1034=CARTESIAN_POINT('',(44.548912297,-43.96524969,5.382108818));
#1035=CARTESIAN_POINT('',(44.579510488,-43.988725654,5.254261479));
#1036=CARTESIAN_POINT('',(44.60537015,-44.,5.123965799));
#1037=CARTESIAN_POINT('',(44.626135208,-44.,4.991257045));
#1038=B_SPLINE_CURVE_WITH_KNOTS('',3,(#1013,#1014,#1015,#1016,#1017,#1018,#1019,#1020,#1021,#1022,#1023,#1024,#1025,#1026,#1027,#1028,#1029,#1030,#1031,#1032,#1033,#1034,#1035,#1036,#1037),.UNSPECIFIED.,.F.,.F.,(4,3,3,3,3,3,3,3,4),(0.,0.000397388,0.000794776,0.001192164,0.001589552,0.00198694,0.002384328,0.002781716,0.003179104),.UNSPECIFIED.);
#1039=EDGE_CURVE('',#956,#525,#1038,.T.);
#1040=ORIENTED_EDGE('',*,*,#1039,.T.);
#1041=ORIENTED_EDGE('',*,*,#531,.F.);
#1042=ORIENTED_EDGE('',*,*,#316,.T.);
#1043=EDGE_LOOP('',(#986,#1011,#1012,#1040,#1041,#1042));
#1044=FACE_BOUND('',#1043,.T.);
#1045=ADVANCED_FACE('',(#1044),#985,.T.);
#1046=CARTESIAN_POINT('',(44.978300019,-8.,5.215361924));
#1047=DIRECTION('',(0.843661488,0.,0.536875492));
#1048=DIRECTION('',(0.536875492,0.,-0.843661488));
#1049=AXIS2_PLACEMENT_3D('',#1046,#1047,#1048);
#1050=CYLINDRICAL_SURFACE('',#1049,2.);
#1051=ORIENTED_EDGE('',*,*,#1010,.F.);
#1052=ORIENTED_EDGE('',*,*,#636,.F.);
#1053=CARTESIAN_POINT('',(39.072669604,-8.,1.457233479));
#1054=DIRECTION('',(-0.97618706,0.,0.216930458));
#1055=DIRECTION('',(0.216930458,0.,0.97618706));
#1056=AXIS2_PLACEMENT_3D('',#1053,#1054,#1055);
#1057=ELLIPSE('',#1056,2.828427125,2.);
#1058=EDGE_CURVE('',#33,#623,#1057,.T.);
#1059=ORIENTED_EDGE('',*,*,#1058,.F.);
#1060=ORIENTED_EDGE('',*,*,#969,.F.);
#1061=EDGE_LOOP('',(#1051,#1052,#1059,#1060));
#1062=FACE_BOUND('',#1061,.T.);
#1063=ADVANCED_FACE('',(#1062),#1050,.T.);
#1064=CARTESIAN_POINT('',(29.262490156,-8.,16.873229755));
#1065=DIRECTION('',(-0.536875492,0.,0.843661488));
#1066=DIRECTION('',(0.843661488,0.,0.536875492));
#1067=AXIS2_PLACEMENT_3D('',#1064,#1065,#1066);
#1068=CYLINDRICAL_SURFACE('',#1067,2.);
#1069=ORIENTED_EDGE('',*,*,#628,.F.);
#1070=CARTESIAN_POINT('',(14.229976375,-8.,40.495751411));
#1071=DIRECTION('',(0.536875492,-0.,-0.843661488));
#1072=DIRECTION('',(0.843661488,0.,0.536875492));
#1073=AXIS2_PLACEMENT_3D('',#1070,#1071,#1072);
#1074=CIRCLE('',#1073,2.);
#1075=EDGE_CURVE('',#615,#35,#1074,.T.);
#1076=ORIENTED_EDGE('',*,*,#1075,.T.);
#1077=ORIENTED_EDGE('',*,*,#40,.F.);
#1078=ORIENTED_EDGE('',*,*,#1058,.T.);
#1079=EDGE_LOOP('',(#1069,#1076,#1077,#1078));
#1080=FACE_BOUND('',#1079,.T.);
#1081=ADVANCED_FACE('',(#1080),#1068,.T.);
#1082=CARTESIAN_POINT('',(10.602081369,-42.,-16.66041358));
#1083=DIRECTION('',(-0.843661488,0.,-0.536875492));
#1084=DIRECTION('',(-0.536875492,0.,0.843661488));
#1085=AXIS2_PLACEMENT_3D('',#1082,#1083,#1084);
#1086=CYLINDRICAL_SURFACE('',#1085,2.);
#1087=ORIENTED_EDGE('',*,*,#1039,.F.);
#1088=ORIENTED_EDGE('',*,*,#976,.F.);
#1089=CARTESIAN_POINT('',(39.072669604,-42.,1.457233479));
#1090=DIRECTION('',(-0.97618706,-0.,0.216930458));
#1091=DIRECTION('',(-0.216930458,0.,-0.97618706));
#1092=AXIS2_PLACEMENT_3D('',#1089,#1090,#1091);
#1093=ELLIPSE('',#1092,2.828427125,2.);
#1094=EDGE_CURVE('',#534,#51,#1093,.T.);
#1095=ORIENTED_EDGE('',*,*,#1094,.F.);
#1096=ORIENTED_EDGE('',*,*,#539,.F.);
#1097=EDGE_LOOP('',(#1087,#1088,#1095,#1096));
#1098=FACE_BOUND('',#1097,.T.);
#1099=ADVANCED_FACE('',(#1098),#1086,.T.);
#1100=CARTESIAN_POINT('',(28.470588235,-42.,18.117647059));
#1101=DIRECTION('',(0.536875492,0.,-0.843661488));
#1102=DIRECTION('',(-0.843661488,0.,-0.536875492));
#1103=AXIS2_PLACEMENT_3D('',#1100,#1101,#1102);
#1104=CYLINDRICAL_SURFACE('',#1103,2.);
#1105=ORIENTED_EDGE('',*,*,#56,.F.);
#1106=CARTESIAN_POINT('',(14.229976375,-42.,40.495751411));
#1107=DIRECTION('',(0.536875492,0.,-0.843661488));
#1108=DIRECTION('',(-0.843661488,0.,-0.536875492));
#1109=AXIS2_PLACEMENT_3D('',#1106,#1107,#1108);
#1110=CIRCLE('',#1109,2.);
#1111=EDGE_CURVE('',#43,#542,#1110,.T.);
#1112=ORIENTED_EDGE('',*,*,#1111,.T.);
#1113=ORIENTED_EDGE('',*,*,#547,.F.);
#1114=ORIENTED_EDGE('',*,*,#1094,.T.);
#1115=EDGE_LOOP('',(#1105,#1112,#1113,#1114));
#1116=FACE_BOUND('',#1115,.T.);
#1117=ADVANCED_FACE('',(#1116),#1104,.T.);
#1118=CARTESIAN_POINT('',(10.011668936,-8.,37.81137395));
#1119=DIRECTION('',(-0.843661488,0.,-0.536875492));
#1120=DIRECTION('',(-0.536875492,0.,0.843661488));
#1121=AXIS2_PLACEMENT_3D('',#1118,#1119,#1120);
#1122=CYLINDRICAL_SURFACE('',#1121,2.);
#1123=ORIENTED_EDGE('',*,*,#620,.F.);
#1124=CARTESIAN_POINT('',(5.793361497,-8.,35.126996489));
#1125=DIRECTION('',(0.843661488,-0.,0.536875492));
#1126=DIRECTION('',(-0.536875492,0.,0.843661488));
#1127=AXIS2_PLACEMENT_3D('',#1124,#1125,#1126);
#1128=CIRCLE('',#1127,2.);
#1129=EDGE_CURVE('',#607,#390,#1128,.T.);
#1130=ORIENTED_EDGE('',*,*,#1129,.T.);
#1131=ORIENTED_EDGE('',*,*,#395,.F.);
#1132=CARTESIAN_POINT('',(14.229976375,-8.,40.495751411));
#1133=DIRECTION('',(0.843661488,0.,0.536875492));
#1134=DIRECTION('',(0.536875492,0.,-0.843661488));
#1135=AXIS2_PLACEMENT_3D('',#1132,#1133,#1134);
#1136=CIRCLE('',#1135,2.);
#1137=EDGE_CURVE('',#615,#388,#1136,.T.);
#1138=ORIENTED_EDGE('',*,*,#1137,.F.);
#1139=EDGE_LOOP('',(#1123,#1130,#1131,#1138));
#1140=FACE_BOUND('',#1139,.T.);
#1141=ADVANCED_FACE('',(#1140),#1122,.T.);
#1142=CARTESIAN_POINT('',(14.229976375,-8.,40.495751411));
#1143=DIRECTION('',(0.536875492,0.,-0.843661488));
#1144=DIRECTION('',(-0.843661488,0.,-0.536875492));
#1145=AXIS2_PLACEMENT_3D('',#1142,#1143,#1144);
#1146=SPHERICAL_SURFACE('',#1145,2.);
#1147=ORIENTED_EDGE('',*,*,#1075,.F.);
#1148=ORIENTED_EDGE('',*,*,#1137,.T.);
#1149=CARTESIAN_POINT('',(14.229976375,-8.,42.495751411));
#1150=VERTEX_POINT('',#1149);
#1151=CARTESIAN_POINT('',(14.229976375,-8.,40.495751411));
#1152=DIRECTION('',(0.,-1.,0.));
#1153=DIRECTION('',(0.,0.,-1.));
#1154=AXIS2_PLACEMENT_3D('',#1151,#1152,#1153);
#1155=CIRCLE('',#1154,2.);
#1156=EDGE_CURVE('',#1150,#388,#1155,.T.);
#1157=ORIENTED_EDGE('',*,*,#1156,.F.);
#1158=CARTESIAN_POINT('',(14.229976375,-8.,40.495751411));
#1159=DIRECTION('',(0.,-1.,0.));
#1160=DIRECTION('',(0.,0.,-1.));
#1161=AXIS2_PLACEMENT_3D('',#1158,#1159,#1160);
#1162=CIRCLE('',#1161,2.);
#1163=EDGE_CURVE('',#35,#1150,#1162,.T.);
#1164=ORIENTED_EDGE('',*,*,#1163,.F.);
#1165=EDGE_LOOP('',(#1147,#1148,#1157,#1164));
#1166=FACE_BOUND('',#1165,.T.);
#1167=ADVANCED_FACE('',(#1166),#1146,.T.);
#1168=CARTESIAN_POINT('',(14.229976375,-50.,40.495751411));
#1169=DIRECTION('',(0.,1.,0.));
#1170=DIRECTION('',(0.,-0.,1.));
#1171=AXIS2_PLACEMENT_3D('',#1168,#1169,#1170);
#1172=CYLINDRICAL_SURFACE('',#1171,2.);
#1173=CARTESIAN_POINT('',(14.229976375,-42.,42.495751411));
#1174=VERTEX_POINT('',#1173);
#1175=CARTESIAN_POINT('',(14.229976375,-8.,42.495751411));
#1176=DIRECTION('',(-0.,-1.,-0.));
#1177=VECTOR('',#1176,34.);
#1178=LINE('',#1175,#1177);
#1179=EDGE_CURVE('',#1150,#1174,#1178,.T.);
#1180=ORIENTED_EDGE('',*,*,#1179,.T.);
#1181=CARTESIAN_POINT('',(14.229976375,-42.,40.495751411));
#1182=DIRECTION('',(0.,-1.,0.));
#1183=DIRECTION('',(0.,0.,-1.));
#1184=AXIS2_PLACEMENT_3D('',#1181,#1182,#1183);
#1185=CIRCLE('',#1184,2.);
#1186=EDGE_CURVE('',#43,#1174,#1185,.T.);
#1187=ORIENTED_EDGE('',*,*,#1186,.F.);
#1188=ORIENTED_EDGE('',*,*,#48,.F.);
#1189=ORIENTED_EDGE('',*,*,#1163,.T.);
#1190=EDGE_LOOP('',(#1180,#1187,#1188,#1189));
#1191=FACE_BOUND('',#1190,.T.);
#1192=ADVANCED_FACE('',(#1191),#1172,.T.);
#1193=CARTESIAN_POINT('',(14.229976375,-42.,40.495751411));
#1194=DIRECTION('',(0.536875492,0.,-0.843661488));
#1195=DIRECTION('',(-0.843661488,0.,-0.536875492));
#1196=AXIS2_PLACEMENT_3D('',#1193,#1194,#1195);
#1197=SPHERICAL_SURFACE('',#1196,2.);
#1198=ORIENTED_EDGE('',*,*,#1111,.F.);
#1199=ORIENTED_EDGE('',*,*,#1186,.T.);
#1200=CARTESIAN_POINT('',(14.229976375,-42.,40.495751411));
#1201=DIRECTION('',(0.,-1.,0.));
#1202=DIRECTION('',(0.,0.,-1.));
#1203=AXIS2_PLACEMENT_3D('',#1200,#1201,#1202);
#1204=CIRCLE('',#1203,2.);
#1205=EDGE_CURVE('',#1174,#406,#1204,.T.);
#1206=ORIENTED_EDGE('',*,*,#1205,.T.);
#1207=CARTESIAN_POINT('',(14.229976375,-42.,40.495751411));
#1208=DIRECTION('',(-0.843661488,-0.,-0.536875492));
#1209=DIRECTION('',(-0.536875492,0.,0.843661488));
#1210=AXIS2_PLACEMENT_3D('',#1207,#1208,#1209);
#1211=CIRCLE('',#1210,2.);
#1212=EDGE_CURVE('',#542,#406,#1211,.T.);
#1213=ORIENTED_EDGE('',*,*,#1212,.F.);
#1214=EDGE_LOOP('',(#1198,#1199,#1206,#1213));
#1215=FACE_BOUND('',#1214,.T.);
#1216=ADVANCED_FACE('',(#1215),#1197,.T.);
#1217=CARTESIAN_POINT('',(-14.240611861,-42.,22.378104352));
#1218=DIRECTION('',(0.843661488,0.,0.536875492));
#1219=DIRECTION('',(0.536875492,0.,-0.843661488));
#1220=AXIS2_PLACEMENT_3D('',#1217,#1218,#1219);
#1221=CYLINDRICAL_SURFACE('',#1220,2.);
#1222=ORIENTED_EDGE('',*,*,#411,.F.);
#1223=CARTESIAN_POINT('',(5.793361497,-42.,35.126996489));
#1224=DIRECTION('',(0.843661488,0.,0.536875492));
#1225=DIRECTION('',(0.536875492,0.,-0.843661488));
#1226=AXIS2_PLACEMENT_3D('',#1223,#1224,#1225);
#1227=CIRCLE('',#1226,2.);
#1228=EDGE_CURVE('',#398,#550,#1227,.T.);
#1229=ORIENTED_EDGE('',*,*,#1228,.T.);
#1230=ORIENTED_EDGE('',*,*,#555,.F.);
#1231=ORIENTED_EDGE('',*,*,#1212,.T.);
#1232=EDGE_LOOP('',(#1222,#1229,#1230,#1231));
#1233=FACE_BOUND('',#1232,.T.);
#1234=ADVANCED_FACE('',(#1233),#1221,.T.);
#1235=CARTESIAN_POINT('',(15.935816895,-42.,19.188852294));
#1236=DIRECTION('',(-0.536875492,0.,0.843661488));
#1237=DIRECTION('',(0.843661488,0.,0.536875492));
#1238=AXIS2_PLACEMENT_3D('',#1235,#1236,#1237);
#1239=CYLINDRICAL_SURFACE('',#1238,2.);
#1240=ORIENTED_EDGE('',*,*,#451,.F.);
#1241=CARTESIAN_POINT('',(19.14394892,-42.,14.147501969));
#1242=DIRECTION('',(-0.536875492,0.,0.843661488));
#1243=DIRECTION('',(0.843661488,0.,0.536875492));
#1244=AXIS2_PLACEMENT_3D('',#1241,#1242,#1243);
#1245=CIRCLE('',#1244,2.);
#1246=EDGE_CURVE('',#438,#558,#1245,.T.);
#1247=ORIENTED_EDGE('',*,*,#1246,.T.);
#1248=ORIENTED_EDGE('',*,*,#563,.F.);
#1249=CARTESIAN_POINT('',(5.793361497,-42.,35.126996489));
#1250=DIRECTION('',(-0.536875492,0.,0.843661488));
#1251=DIRECTION('',(0.843661488,0.,0.536875492));
#1252=AXIS2_PLACEMENT_3D('',#1249,#1250,#1251);
#1253=CIRCLE('',#1252,2.);
#1254=EDGE_CURVE('',#446,#550,#1253,.T.);
#1255=ORIENTED_EDGE('',*,*,#1254,.F.);
#1256=EDGE_LOOP('',(#1240,#1247,#1248,#1255));
#1257=FACE_BOUND('',#1256,.T.);
#1258=ADVANCED_FACE('',(#1257),#1239,.T.);
#1259=CARTESIAN_POINT('',(5.793361497,-42.,35.126996489));
#1260=DIRECTION('',(-0.843661488,0.,-0.536875492));
#1261=DIRECTION('',(-0.536875492,0.,0.843661488));
#1262=AXIS2_PLACEMENT_3D('',#1259,#1260,#1261);
#1263=SPHERICAL_SURFACE('',#1262,2.);
#1264=ORIENTED_EDGE('',*,*,#1254,.T.);
#1265=ORIENTED_EDGE('',*,*,#1228,.F.);
#1266=CARTESIAN_POINT('',(5.793361497,-42.,35.126996489));
#1267=DIRECTION('',(0.,1.,0.));
#1268=DIRECTION('',(0.,-0.,1.));
#1269=AXIS2_PLACEMENT_3D('',#1266,#1267,#1268);
#1270=CIRCLE('',#1269,2.);
#1271=EDGE_CURVE('',#446,#398,#1270,.T.);
#1272=ORIENTED_EDGE('',*,*,#1271,.F.);
#1273=EDGE_LOOP('',(#1264,#1265,#1272));
#1274=FACE_BOUND('',#1273,.T.);
#1275=ADVANCED_FACE('',(#1274),#1263,.T.);
#1276=CARTESIAN_POINT('',(5.793361497,-50.,35.126996489));
#1277=DIRECTION('',(0.,-1.,0.));
#1278=DIRECTION('',(0.,0.,-1.));
#1279=AXIS2_PLACEMENT_3D('',#1276,#1277,#1278);
#1280=CYLINDRICAL_SURFACE('',#1279,2.);
#1281=ORIENTED_EDGE('',*,*,#1271,.T.);
#1282=ORIENTED_EDGE('',*,*,#403,.F.);
#1283=CARTESIAN_POINT('',(5.793361497,-8.,35.126996489));
#1284=DIRECTION('',(0.,1.,0.));
#1285=DIRECTION('',(0.,-0.,1.));
#1286=AXIS2_PLACEMENT_3D('',#1283,#1284,#1285);
#1287=CIRCLE('',#1286,2.);
#1288=EDGE_CURVE('',#428,#390,#1287,.T.);
#1289=ORIENTED_EDGE('',*,*,#1288,.F.);
#1290=ORIENTED_EDGE('',*,*,#457,.F.);
#1291=EDGE_LOOP('',(#1281,#1282,#1289,#1290));
#1292=FACE_BOUND('',#1291,.T.);
#1293=ADVANCED_FACE('',(#1292),#1280,.T.);
#1294=CARTESIAN_POINT('',(5.793361497,-8.,35.126996489));
#1295=DIRECTION('',(-0.843661488,0.,-0.536875492));
#1296=DIRECTION('',(-0.536875492,0.,0.843661488));
#1297=AXIS2_PLACEMENT_3D('',#1294,#1295,#1296);
#1298=SPHERICAL_SURFACE('',#1297,2.);
#1299=ORIENTED_EDGE('',*,*,#1288,.T.);
#1300=ORIENTED_EDGE('',*,*,#1129,.F.);
#1301=CARTESIAN_POINT('',(5.793361497,-8.,35.126996489));
#1302=DIRECTION('',(0.536875492,0.,-0.843661488));
#1303=DIRECTION('',(-0.843661488,0.,-0.536875492));
#1304=AXIS2_PLACEMENT_3D('',#1301,#1302,#1303);
#1305=CIRCLE('',#1304,2.);
#1306=EDGE_CURVE('',#428,#607,#1305,.T.);
#1307=ORIENTED_EDGE('',*,*,#1306,.F.);
#1308=EDGE_LOOP('',(#1299,#1300,#1307));
#1309=FACE_BOUND('',#1308,.T.);
#1310=ADVANCED_FACE('',(#1309),#1298,.T.);
#1311=CARTESIAN_POINT('',(20.033973358,-8.,12.748892137));
#1312=DIRECTION('',(0.536875492,0.,-0.843661488));
#1313=DIRECTION('',(-0.843661488,0.,-0.536875492));
#1314=AXIS2_PLACEMENT_3D('',#1311,#1312,#1313);
#1315=CYLINDRICAL_SURFACE('',#1314,2.);
#1316=ORIENTED_EDGE('',*,*,#612,.F.);
#1317=CARTESIAN_POINT('',(19.14394892,-8.,14.147501969));
#1318=DIRECTION('',(-0.536875492,0.,0.843661488));
#1319=DIRECTION('',(0.843661488,0.,0.536875492));
#1320=AXIS2_PLACEMENT_3D('',#1317,#1318,#1319);
#1321=CIRCLE('',#1320,2.);
#1322=EDGE_CURVE('',#598,#430,#1321,.T.);
#1323=ORIENTED_EDGE('',*,*,#1322,.T.);
#1324=ORIENTED_EDGE('',*,*,#435,.F.);
#1325=ORIENTED_EDGE('',*,*,#1306,.T.);
#1326=EDGE_LOOP('',(#1316,#1323,#1324,#1325));
#1327=FACE_BOUND('',#1326,.T.);
#1328=ADVANCED_FACE('',(#1327),#1315,.T.);
#1329=CARTESIAN_POINT('',(15.769302969,-50.,12.));
#1330=DIRECTION('',(0.,-1.,0.));
#1331=DIRECTION('',(0.,0.,-1.));
#1332=AXIS2_PLACEMENT_3D('',#1329,#1330,#1331);
#1333=CYLINDRICAL_SURFACE('',#1332,2.);
#1334=CARTESIAN_POINT('',(15.769302969,-42.,12.));
#1335=DIRECTION('',(0.,-1.,0.));
#1336=DIRECTION('',(0.,0.,-1.));
#1337=AXIS2_PLACEMENT_3D('',#1334,#1335,#1336);
#1338=CIRCLE('',#1337,2.);
#1339=EDGE_CURVE('',#486,#438,#1338,.T.);
#1340=ORIENTED_EDGE('',*,*,#1339,.T.);
#1341=ORIENTED_EDGE('',*,*,#443,.F.);
#1342=CARTESIAN_POINT('',(15.769302969,-8.,12.));
#1343=DIRECTION('',(0.,-1.,0.));
#1344=DIRECTION('',(0.,0.,-1.));
#1345=AXIS2_PLACEMENT_3D('',#1342,#1343,#1344);
#1346=CIRCLE('',#1345,2.);
#1347=EDGE_CURVE('',#468,#430,#1346,.T.);
#1348=ORIENTED_EDGE('',*,*,#1347,.F.);
#1349=ORIENTED_EDGE('',*,*,#497,.F.);
#1350=EDGE_LOOP('',(#1340,#1341,#1348,#1349));
#1351=FACE_BOUND('',#1350,.T.);
#1352=ADVANCED_FACE('',(#1351),#1333,.F.);
#1353=CARTESIAN_POINT('',(0.,-8.,8.));
#1354=DIRECTION('',(-1.,0.,0.));
#1355=DIRECTION('',(0.,0.,1.));
#1356=AXIS2_PLACEMENT_3D('',#1353,#1354,#1355);
#1357=CYLINDRICAL_SURFACE('',#1356,2.);
#1358=ORIENTED_EDGE('',*,*,#595,.F.);
#1359=CARTESIAN_POINT('',(2.,-8.,8.));
#1360=DIRECTION('',(1.,-0.,-0.));
#1361=DIRECTION('',(0.,0.,1.));
#1362=AXIS2_PLACEMENT_3D('',#1359,#1360,#1361);
#1363=CIRCLE('',#1362,2.);
#1364=EDGE_CURVE('',#582,#470,#1363,.T.);
#1365=ORIENTED_EDGE('',*,*,#1364,.T.);
#1366=ORIENTED_EDGE('',*,*,#475,.F.);
#1367=CARTESIAN_POINT('',(15.769302969,-8.,8.));
#1368=DIRECTION('',(1.,0.,0.));
#1369=DIRECTION('',(0.,0.,-1.));
#1370=AXIS2_PLACEMENT_3D('',#1367,#1368,#1369);
#1371=CIRCLE('',#1370,2.);
#1372=EDGE_CURVE('',#590,#468,#1371,.T.);
#1373=ORIENTED_EDGE('',*,*,#1372,.F.);
#1374=EDGE_LOOP('',(#1358,#1365,#1366,#1373));
#1375=FACE_BOUND('',#1374,.T.);
#1376=ADVANCED_FACE('',(#1375),#1357,.T.);
#1377=CARTESIAN_POINT('',(15.769302969,-8.,12.));
#1378=DIRECTION('',(0.,-1.,0.));
#1379=DIRECTION('',(0.,0.,-1.));
#1380=AXIS2_PLACEMENT_3D('',#1377,#1378,#1379);
#1381=TOROIDAL_SURFACE('',#1380,4.,2.);
#1382=ORIENTED_EDGE('',*,*,#1322,.F.);
#1383=ORIENTED_EDGE('',*,*,#604,.F.);
#1384=ORIENTED_EDGE('',*,*,#1372,.T.);
#1385=ORIENTED_EDGE('',*,*,#1347,.T.);
#1386=EDGE_LOOP('',(#1382,#1383,#1384,#1385));
#1387=FACE_BOUND('',#1386,.T.);
#1388=ADVANCED_FACE('',(#1387),#1381,.T.);
#1389=CARTESIAN_POINT('',(15.769302969,-42.,12.));
#1390=DIRECTION('',(0.,-1.,0.));
#1391=DIRECTION('',(0.,0.,-1.));
#1392=AXIS2_PLACEMENT_3D('',#1389,#1390,#1391);
#1393=TOROIDAL_SURFACE('',#1392,4.,2.);
#1394=ORIENTED_EDGE('',*,*,#1246,.F.);
#1395=ORIENTED_EDGE('',*,*,#1339,.F.);
#1396=CARTESIAN_POINT('',(15.769302969,-42.,8.));
#1397=DIRECTION('',(-1.,-0.,-0.));
#1398=DIRECTION('',(0.,0.,-1.));
#1399=AXIS2_PLACEMENT_3D('',#1396,#1397,#1398);
#1400=CIRCLE('',#1399,2.);
#1401=EDGE_CURVE('',#508,#486,#1400,.T.);
#1402=ORIENTED_EDGE('',*,*,#1401,.F.);
#1403=ORIENTED_EDGE('',*,*,#570,.F.);
#1404=EDGE_LOOP('',(#1394,#1395,#1402,#1403));
#1405=FACE_BOUND('',#1404,.T.);
#1406=ADVANCED_FACE('',(#1405),#1393,.T.);
#1407=CARTESIAN_POINT('',(10.891634177,-42.,8.));
#1408=DIRECTION('',(1.,0.,-0.));
#1409=DIRECTION('',(-0.,0.,-1.));
#1410=AXIS2_PLACEMENT_3D('',#1407,#1408,#1409);
#1411=CYLINDRICAL_SURFACE('',#1410,2.);
#1412=ORIENTED_EDGE('',*,*,#491,.F.);
#1413=CARTESIAN_POINT('',(2.,-42.,8.));
#1414=DIRECTION('',(1.,0.,-0.));
#1415=DIRECTION('',(-0.,0.,-1.));
#1416=AXIS2_PLACEMENT_3D('',#1413,#1414,#1415);
#1417=CIRCLE('',#1416,2.);
#1418=EDGE_CURVE('',#478,#510,#1417,.T.);
#1419=ORIENTED_EDGE('',*,*,#1418,.T.);
#1420=ORIENTED_EDGE('',*,*,#515,.F.);
#1421=ORIENTED_EDGE('',*,*,#1401,.T.);
#1422=EDGE_LOOP('',(#1412,#1419,#1420,#1421));
#1423=FACE_BOUND('',#1422,.T.);
#1424=ADVANCED_FACE('',(#1423),#1411,.T.);
#1425=CARTESIAN_POINT('',(2.,-42.,5.));
#1426=DIRECTION('',(0.,0.,1.));
#1427=DIRECTION('',(1.,0.,-0.));
#1428=AXIS2_PLACEMENT_3D('',#1425,#1426,#1427);
#1429=CYLINDRICAL_SURFACE('',#1428,2.);
#1430=ORIENTED_EDGE('',*,*,#331,.F.);
#1431=ORIENTED_EDGE('',*,*,#521,.F.);
#1432=CARTESIAN_POINT('',(2.,-42.,8.));
#1433=DIRECTION('',(0.,0.,1.));
#1434=DIRECTION('',(0.,-1.,0.));
#1435=AXIS2_PLACEMENT_3D('',#1432,#1433,#1434);
#1436=CIRCLE('',#1435,2.);
#1437=EDGE_CURVE('',#203,#510,#1436,.T.);
#1438=ORIENTED_EDGE('',*,*,#1437,.F.);
#1439=ORIENTED_EDGE('',*,*,#282,.F.);
#1440=EDGE_LOOP('',(#1430,#1431,#1438,#1439));
#1441=FACE_BOUND('',#1440,.T.);
#1442=ADVANCED_FACE('',(#1441),#1429,.T.);
#1443=CARTESIAN_POINT('',(2.,-42.,8.));
#1444=DIRECTION('',(-1.,0.,0.));
#1445=DIRECTION('',(0.,0.,1.));
#1446=AXIS2_PLACEMENT_3D('',#1443,#1444,#1445);
#1447=SPHERICAL_SURFACE('',#1446,2.);
#1448=ORIENTED_EDGE('',*,*,#1437,.T.);
#1449=ORIENTED_EDGE('',*,*,#1418,.F.);
#1450=CARTESIAN_POINT('',(2.,-42.,8.));
#1451=DIRECTION('',(0.,1.,0.));
#1452=DIRECTION('',(0.,-0.,1.));
#1453=AXIS2_PLACEMENT_3D('',#1450,#1451,#1452);
#1454=CIRCLE('',#1453,2.);
#1455=EDGE_CURVE('',#203,#478,#1454,.T.);
#1456=ORIENTED_EDGE('',*,*,#1455,.F.);
#1457=EDGE_LOOP('',(#1448,#1449,#1456));
#1458=FACE_BOUND('',#1457,.T.);
#1459=ADVANCED_FACE('',(#1458),#1447,.T.);
#1460=CARTESIAN_POINT('',(2.,-50.,8.));
#1461=DIRECTION('',(0.,1.,0.));
#1462=DIRECTION('',(0.,-0.,1.));
#1463=AXIS2_PLACEMENT_3D('',#1460,#1461,#1462);
#1464=CYLINDRICAL_SURFACE('',#1463,2.);
#1465=ORIENTED_EDGE('',*,*,#1455,.T.);
#1466=ORIENTED_EDGE('',*,*,#483,.F.);
#1467=CARTESIAN_POINT('',(2.,-8.,8.));
#1468=DIRECTION('',(0.,1.,0.));
#1469=DIRECTION('',(0.,-0.,1.));
#1470=AXIS2_PLACEMENT_3D('',#1467,#1468,#1469);
#1471=CIRCLE('',#1470,2.);
#1472=EDGE_CURVE('',#205,#470,#1471,.T.);
#1473=ORIENTED_EDGE('',*,*,#1472,.F.);
#1474=ORIENTED_EDGE('',*,*,#210,.F.);
#1475=EDGE_LOOP('',(#1465,#1466,#1473,#1474));
#1476=FACE_BOUND('',#1475,.T.);
#1477=ADVANCED_FACE('',(#1476),#1464,.T.);
#1478=CARTESIAN_POINT('',(2.,-8.,8.));
#1479=DIRECTION('',(-1.,0.,0.));
#1480=DIRECTION('',(0.,0.,1.));
#1481=AXIS2_PLACEMENT_3D('',#1478,#1479,#1480);
#1482=SPHERICAL_SURFACE('',#1481,2.);
#1483=ORIENTED_EDGE('',*,*,#1472,.T.);
#1484=ORIENTED_EDGE('',*,*,#1364,.F.);
#1485=CARTESIAN_POINT('',(2.,-8.,8.));
#1486=DIRECTION('',(0.,0.,-1.));
#1487=DIRECTION('',(-1.,0.,0.));
#1488=AXIS2_PLACEMENT_3D('',#1485,#1486,#1487);
#1489=CIRCLE('',#1488,2.);
#1490=EDGE_CURVE('',#205,#582,#1489,.T.);
#1491=ORIENTED_EDGE('',*,*,#1490,.F.);
#1492=EDGE_LOOP('',(#1483,#1484,#1491));
#1493=FACE_BOUND('',#1492,.T.);
#1494=ADVANCED_FACE('',(#1493),#1482,.T.);
#1495=CARTESIAN_POINT('',(2.,-8.,0.));
#1496=DIRECTION('',(0.,0.,-1.));
#1497=DIRECTION('',(-1.,0.,0.));
#1498=AXIS2_PLACEMENT_3D('',#1495,#1496,#1497);
#1499=CYLINDRICAL_SURFACE('',#1498,2.);
#1500=ORIENTED_EDGE('',*,*,#300,.F.);
#1501=ORIENTED_EDGE('',*,*,#218,.F.);
#1502=ORIENTED_EDGE('',*,*,#1490,.T.);
#1503=ORIENTED_EDGE('',*,*,#587,.F.);
#1504=EDGE_LOOP('',(#1500,#1501,#1502,#1503));
#1505=FACE_BOUND('',#1504,.T.);
#1506=ADVANCED_FACE('',(#1505),#1499,.T.);
#1507=CARTESIAN_POINT('',(25.235923965,-25.,23.200690913));
#1508=DIRECTION('',(0.843661488,0.,0.536875492));
#1509=DIRECTION('',(0.536875492,0.,-0.843661488));
#1510=AXIS2_PLACEMENT_3D('',#1507,#1508,#1509);
#1511=CYLINDRICAL_SURFACE('',#1510,16.500303028);
#1512=ORIENTED_EDGE('',*,*,#75,.T.);
#1513=ORIENTED_EDGE('',*,*,#756,.F.);
#1514=ORIENTED_EDGE('',*,*,#789,.F.);
#1515=ORIENTED_EDGE('',*,*,#914,.T.);
#1516=EDGE_LOOP('',(#1512,#1513,#1514,#1515));
#1517=FACE_BOUND('',#1516,.T.);
#1518=ADVANCED_FACE('',(#1517),#1511,.F.);
#1519=CARTESIAN_POINT('',(25.209161534,-24.949848486,23.242746161));
#1520=DIRECTION('',(0.843661488,0.,0.536875492));
#1521=DIRECTION('',(0.536875492,0.,-0.843661488));
#1522=AXIS2_PLACEMENT_3D('',#1519,#1520,#1521);
#1523=CYLINDRICAL_SURFACE('',#1522,16.5502275);
#1524=ORIENTED_EDGE('',*,*,#127,.T.);
#1525=CARTESIAN_POINT('',(34.094532274,-25.,9.280020712));
#1526=DIRECTION('',(0.843661488,0.,0.536875492));
#1527=VECTOR('',#1526,2.);
#1528=LINE('',#1525,#1527);
#1529=EDGE_CURVE('',#146,#112,#1528,.T.);
#1530=ORIENTED_EDGE('',*,*,#1529,.F.);
#1531=ORIENTED_EDGE('',*,*,#152,.F.);
#1532=ORIENTED_EDGE('',*,*,#763,.T.);
#1533=EDGE_LOOP('',(#1524,#1530,#1531,#1532));
#1534=FACE_BOUND('',#1533,.T.);
#1535=ADVANCED_FACE('',(#1534),#1523,.F.);
#1536=CARTESIAN_POINT('',(25.262525664,-24.950149688,23.158888242));
#1537=DIRECTION('',(0.843661488,0.,0.536875492));
#1538=DIRECTION('',(0.536875492,0.,-0.843661488));
#1539=AXIS2_PLACEMENT_3D('',#1536,#1537,#1538);
#1540=CYLINDRICAL_SURFACE('',#1539,16.450829453);
#1541=CARTESIAN_POINT('',(35.7818958,-24.950149688,10.353707975));
#1542=DIRECTION('',(-0.843661488,-0.,-0.536875492));
#1543=VECTOR('',#1542,2.);
#1544=LINE('',#1541,#1543);
#1545=EDGE_CURVE('',#103,#155,#1544,.T.);
#1546=ORIENTED_EDGE('',*,*,#1545,.F.);
#1547=ORIENTED_EDGE('',*,*,#109,.T.);
#1548=ORIENTED_EDGE('',*,*,#804,.F.);
#1549=ORIENTED_EDGE('',*,*,#170,.F.);
#1550=EDGE_LOOP('',(#1546,#1547,#1548,#1549));
#1551=FACE_BOUND('',#1550,.T.);
#1552=ADVANCED_FACE('',(#1551),#1540,.F.);
#1553=CARTESIAN_POINT('',(14.229976375,-50.,40.495751411));
#1554=DIRECTION('',(0.,1.,0.));
#1555=DIRECTION('',(0.,-0.,1.));
#1556=AXIS2_PLACEMENT_3D('',#1553,#1554,#1555);
#1557=CYLINDRICAL_SURFACE('',#1556,2.);
#1558=ORIENTED_EDGE('',*,*,#1179,.F.);
#1559=ORIENTED_EDGE('',*,*,#1156,.T.);
#1560=ORIENTED_EDGE('',*,*,#417,.F.);
#1561=ORIENTED_EDGE('',*,*,#1205,.F.);
#1562=EDGE_LOOP('',(#1558,#1559,#1560,#1561));
#1563=FACE_BOUND('',#1562,.T.);
#1564=ADVANCED_FACE('',(#1563),#1557,.T.);
#1565=CARTESIAN_POINT('',(25.262525664,-24.950149688,23.158888242));
#1566=DIRECTION('',(0.843661488,0.,0.536875492));
#1567=DIRECTION('',(0.536875492,0.,-0.843661488));
#1568=AXIS2_PLACEMENT_3D('',#1565,#1566,#1567);
#1569=CYLINDRICAL_SURFACE('',#1568,16.450829453);
#1570=ORIENTED_EDGE('',*,*,#1545,.T.);
#1571=ORIENTED_EDGE('',*,*,#161,.F.);
#1572=ORIENTED_EDGE('',*,*,#1529,.T.);
#1573=ORIENTED_EDGE('',*,*,#118,.T.);
#1574=EDGE_LOOP('',(#1570,#1571,#1572,#1573));
#1575=FACE_BOUND('',#1574,.T.);
#1576=ADVANCED_FACE('',(#1575),#1569,.F.);
#1577=CLOSED_SHELL('',(#137,#196,#286,#381,#421,#461,#501,#574,#647,#737,#769,#793,#817,#834,#851,#873,#885,#897,#925,#937,#949,#980,#1045,#1063,#1081,#1099,
#1117,#1141,#1167,#1192,#1216,#1234,#1258,#1275,#1293,#1310,#1328,#1352,#1376,#1388,#1406,#1424,#1442,#1459,#1477,#1494,#1506,#1518,#1535,#1552,#1564,
#1576));
#1578=MANIFOLD_SOLID_BREP('Body 02',#1577);
#1579=COLOUR_RGB('',0.082352944,0.945098042,0.905882359);
#1580=FILL_AREA_STYLE_COLOUR('',#1579);
#1581=FILL_AREA_STYLE('',(#1580));
#1582=SURFACE_STYLE_FILL_AREA(#1581);
#1583=SURFACE_SIDE_STYLE('',(#1582));
#1584=SURFACE_STYLE_USAGE(.BOTH.,#1583);
#1585=PRESENTATION_STYLE_ASSIGNMENT((#1584));
#26=STYLED_ITEM('',(#1585),#1578);
#16=SHAPE_REPRESENTATION('root',(#15),#10);
#17=ADVANCED_BREP_SHAPE_REPRESENTATION('root',(#1578),#10);
#1593=SHAPE_REPRESENTATION_RELATIONSHIP('','',#16,#17);
#1594=CARTESIAN_POINT('',(0.,0.,0.));
#1595=DIRECTION('',(0.,0.,1.));
#1596=DIRECTION('',(1.,0.,0.));
#1597=AXIS2_PLACEMENT_3D('',#1594,#1595,#1596);
#1599=MAPPED_ITEM('',#1598,#1597);
#1598=REPRESENTATION_MAP(#1597,#16);
#1600=APPLICATION_CONTEXT('Managed model based 3d engineering');
#1601=APPLICATION_PROTOCOL_DEFINITION('international standard','ap242_managed_model_based_3d_engineering',2014,#1600);
#1602=PRODUCT_CONTEXT('',#1600,'mechanical');
#1603=PRODUCT_DEFINITION_CONTEXT('part definition',#1600,'design');
#24=PRODUCT('root','root','',(#1602));
#1604=PRODUCT_RELATED_PRODUCT_CATEGORY('part','',(#24));
#1605=PRODUCT_DEFINITION_FORMATION_WITH_SPECIFIED_SOURCE('','',#24,.NOT_KNOWN.);
#25=PRODUCT_DEFINITION('design','',#1605,#1603);
#23=PRODUCT_DEFINITION_SHAPE('','',#25);
#1606=SHAPE_DEFINITION_REPRESENTATION(#23,#16);
#11=DRAUGHTING_MODEL('',(#1599),#10);
#1607=DESCRIPTIVE_REPRESENTATION_ITEM('KEY','/Users/khilli/Library/Containers/com.shapr3d.shapr/Data/tmp/42471439-A2CB-4E8E-8BDA-3593C9AC386E.tmp');
#1608=PROPERTY_DEFINITION('KEY','',#25);
#1609=REPRESENTATION('',(#1607),#10);
#1610=PROPERTY_DEFINITION_REPRESENTATION(#1608,#1609);
#1611=GENERAL_PROPERTY('','KEY','');
#1612=GENERAL_PROPERTY_ASSOCIATION('','',#1611,#1608);
#1=MECHANICAL_DESIGN_GEOMETRIC_PRESENTATION_REPRESENTATION('',(#26),#10);
ENDSEC;
END-ISO-10303-21;
